<?xml version="1.0" standalone="no"?><!DOCTYPE svg PUBLIC "-//W3C//DTD SVG 1.1//EN" "http://www.w3.org/Graphics/SVG/1.1/DTD/svg11.dtd"><svg class="icon" width="200px" height="200.00px" viewBox="0 0 1024 1024" version="1.1" xmlns="http://www.w3.org/2000/svg"><path d="M277.761405 159.390788c-100.146599 0-146.277522 119.551283-66.201202 179.710921 27.289436-68.761187 81.66351-118.117691 152.882282-137.573574a108.952946 108.952946 0 0 0-86.68108-42.137347z" fill="#9e22d7" /><path d="M70.812247 320.413822c4.095975 12.287926 9.369544 24.166255 15.667106 35.430187l-32.921402 31.027014a20.531077 20.531077 0 0 0 0 30.207819L111.618402 471.811313a23.551859 23.551859 0 0 0 32.051008 0l32.870203-31.027014c4.96637 2.457585 10.393538 3.942376 15.513507 6.092764v-1.075194c0-25.395048 3.071982-49.356504 8.550348-71.833169-39.679762-24.063856-66.150003-65.894005-66.150003-113.663318 0-74.546753 64.306814-135.167189 143.35914-135.167189 53.554879 0 99.737002 28.057432 124.415254 69.119585 26.316642-3.071982 51.097293-3.071982 80.895514 2.252787a197.477215 197.477215 0 0 0-14.028716-31.69261l32.921403-31.027014a20.633476 20.633476 0 0 0 6.65596-15.103909 20.633476 20.633476 0 0 0-6.65596-15.103909L444.006808 48.901851a23.244661 23.244661 0 0 0-16.025504-6.297563 23.142261 23.142261 0 0 0-15.974304 6.297563l-33.023802 31.027013a219.288284 219.288284 0 0 0-37.580574-14.694311V21.356416A22.015868 22.015868 0 0 0 318.823559 0.006144H236.750451c-12.441525 0-22.630264 9.574343-22.630264 21.350272v43.878137a221.69467 221.69467 0 0 0-37.580574 14.694311L143.61821 48.901851a23.29586 23.29586 0 0 0-15.974304-6.246363 23.244661 23.244661 0 0 0-16.025504 6.246363L53.557951 103.583123a20.838275 20.838275 0 0 0-6.604761 15.103909c0 5.683166 2.406386 11.110333 6.65596 15.103909l32.870203 31.078214c-6.297562 11.263932-11.571131 23.039862-15.564706 35.430187H24.425325a22.015868 22.015868 0 0 0-22.681463 21.350272V299.01235c0 11.775929 10.137539 21.401472 22.681463 21.401472h46.386922zM781.412784 734.363338c36.300582-18.739088 61.183633-54.681272 61.183632-96.357822 0-60.825235-52.479685-110.284138-116.991298-110.284138-22.681464 0-43.673338 6.399962-61.64443 16.947098a385.431287 385.431287 0 0 1-49.817301 112.536925 359.217045 359.217045 0 0 1 167.269397 77.157937z" fill="#9e22d7" /><path d="M1023.484931 596.277766c0-12.748724-10.956734-23.039862-24.422253-23.039861h-50.175699a211.966728 211.966728 0 0 0-16.895899-38.297371l35.532587-33.484599a22.271866 22.271866 0 0 0 0-32.614204l-62.566025-58.982046a25.087849 25.087849 0 0 0-17.254296-6.75836 25.03665 25.03665 0 0 0-17.254297 6.75836l-35.583786 33.535799a236.030584 236.030584 0 0 0-40.601357-15.871905v-47.359716a23.705458 23.705458 0 0 0-24.371053-23.039862h-88.524269a24.93425 24.93425 0 0 0-15.359908 5.529567c7.423955 25.651046 11.519931 53.452479 11.519931 83.148301 0 18.790287-1.535991 37.887773-4.454373 56.934059a159.333444 159.333444 0 0 1 52.530884-9.318345c84.581893 0 153.34308 64.870011 153.34308 144.587933 0 50.943694-28.159831 95.641026-70.553176 121.343272a326.65404 326.65404 0 0 1 71.218772 112.127327 25.190249 25.190249 0 0 0 25.395048-5.273568l62.566025-59.033246a22.323066 22.323066 0 0 0 0-32.614204l-35.583787-33.535799c6.809559-12.083128 12.543925-24.883051 16.895899-38.246171h50.175699a25.087849 25.087849 0 0 0 17.305496-6.758359 22.374266 22.374266 0 0 0 7.167957-16.281502v-83.4555zM829.796493 892.31439c-37.938972-105.317768-138.239171-177.765333-253.950476-187.595674C537.087849 743.425683 489.062538 768.001536 434.688464 768.001536c-54.271674 0-102.348186-24.575853-141.055154-63.28282-115.813705 9.830341-216.062704 82.277906-254.052875 187.595674l-20.991875 58.214051c-5.990364 16.793499-3.071982 35.225389 7.833553 49.663702 10.905535 14.335914 28.518229 22.886263 47.257317 22.886263h721.915668c18.841487 0 36.402982-8.550349 47.359716-22.937463 10.905535-14.335914 13.823917-32.819003 7.782354-49.612502l-20.991874-58.214051z" fill="#9e22d7" /><path d="M246.478393 445.801869c0 130.559217 84.325894 270.743976 188.261271 270.743976 103.935376 0 188.26127-140.133559 188.26127-270.743976 0-270.795175-376.522541-271.307172-376.522541 0z" fill="#9e22d7" /></svg>