<?xml version="1.0" standalone="no"?><!DOCTYPE svg PUBLIC "-//W3C//DTD SVG 1.1//EN" "http://www.w3.org/Graphics/SVG/1.1/DTD/svg11.dtd"><svg t="1665994640138" class="icon" viewBox="0 0 1024 1024" version="1.1" xmlns="http://www.w3.org/2000/svg" p-id="1723" xmlns:xlink="http://www.w3.org/1999/xlink" width="32" height="32"><path d="M435.931429 375.954286c-11.702857-58.514286-54.125714-106.788571-108.251429-127.268572-13.165714-5.851429-21.942857-19.017143-19.017143-33.645714v-1.462857c4.388571-17.554286 21.942857-26.331429 38.034286-20.48 73.142857 27.794286 130.194286 90.697143 146.285714 169.691428l-57.051428 13.165715z" fill="#ffffff" p-id="1724"></path><path d="M428.617143 336.457143l-5.851429-20.48c-10.24-40.96-4.388571-81.92 16.091429-114.102857 19.017143-29.257143 48.274286-49.737143 86.308571-58.514286l20.48-4.388571 5.851429 20.48c10.24 40.96 4.388571 81.92-16.091429 114.102857-19.017143 29.257143-48.274286 49.737143-86.308571 58.514285l-20.48 4.388572z m83.382857-141.897143c-14.628571 7.314286-27.794286 17.554286-36.571429 32.182857-11.702857 19.017143-14.628571 38.034286-14.628571 55.588572 14.628571-7.314286 27.794286-17.554286 36.571429-32.182858 13.165714-19.017143 16.091429-39.497143 14.628571-55.588571z" fill="#ffffff" p-id="1725"></path><path d="M672.914286 674.377143c-14.628571-2.925714-24.868571-16.091429-23.405715-32.182857 4.388571-52.662857-10.24-103.862857-39.497142-147.748572-35.108571-49.737143-90.697143-84.845714-150.674286-93.622857l8.777143-58.514286c76.068571 11.702857 146.285714 54.125714 190.171428 117.028572 39.497143 55.588571 57.051429 119.954286 51.2 187.245714-2.925714 19.017143-20.48 30.72-36.571428 27.794286z" fill="#ffffff" p-id="1726"></path><path d="M662.674286 857.234286c-4.388571 5.851429-10.24 8.777143-17.554286 8.777143H512c-168.228571 0-305.737143-137.508571-305.737143-305.737143 0-115.565714 92.16-212.114286 207.725714-217.965715 13.165714 0 27.794286 0 42.422858 1.462858 64.365714-36.571429 141.897143-45.348571 203.337142-21.942858 64.365714 26.331429 111.177143 77.531429 133.12 144.822858 26.331429 81.92 11.702857 178.468571-39.497142 256l-90.697143 134.582857zM424.228571 399.36c-90.697143 1.462857-162.377143 78.994286-159.451428 169.691429 4.388571 131.657143 114.102857 238.445714 247.222857 238.445714h109.714286c2.925714 0 4.388571-1.462857 5.851428-2.925714l76.068572-112.64c40.96-62.902857 52.662857-141.897143 32.182857-206.262858-11.702857-36.571429-38.034286-83.382857-99.474286-108.251428-45.348571-17.554286-109.714286-8.777143-159.451428 21.942857l-8.777143 5.851429-10.24-1.462858c-13.165714-2.925714-23.405714-4.388571-33.645715-4.388571z" fill="#ffffff" p-id="1727"></path><path d="M634.88 340.845714c-52.662857-20.48-117.028571-17.554286-175.542857 8.777143l-4.388572-8.777143c23.405714-10.24 42.422857-26.331429 55.588572-46.811428 20.48-32.182857 26.331429-71.68 16.091428-114.102857l-5.851428-20.48-20.48 4.388571c-36.571429 8.777143-67.291429 29.257143-86.308572 58.514286-7.314286 11.702857-13.165714 24.868571-16.091428 38.034285-21.942857-19.017143-46.811429-35.108571-74.605714-45.348571-16.091429-5.851429-35.108571 2.925714-38.034286 20.48v1.462857c-2.925714 14.628571 5.851429 27.794286 19.017143 33.645714 43.885714 16.091429 77.531429 49.737143 96.548571 92.16h-11.702857c-115.565714 5.851429-206.262857 102.4-207.725714 217.965715 0 168.228571 137.508571 305.737143 305.737143 305.737143h134.582857c7.314286 0 13.165714-2.925714 17.554285-8.777143l89.234286-133.12c51.2-77.531429 65.828571-174.08 39.497143-256-20.48-70.217143-68.754286-121.417143-133.12-147.748572z m-182.857143-95.085714c8.777143-13.165714 20.48-23.405714 36.571429-32.182857 1.462857 17.554286-1.462857 36.571429-14.628572 55.588571-8.777143 13.165714-20.48 23.405714-36.571428 32.182857 0-17.554286 2.925714-38.034286 14.628571-55.588571z m228.205714 465.188571l-76.068571 112.64c-1.462857 1.462857-4.388571 2.925714-5.851429 2.925715h-109.714285c-133.12 0-241.371429-105.325714-247.222857-238.445715-2.925714-90.697143 68.754286-168.228571 159.451428-169.691428 10.24 0 20.48 1.462857 35.108572 2.925714 59.977143 8.777143 115.565714 42.422857 150.674285 93.622857 30.72 43.885714 43.885714 95.085714 39.497143 147.748572-1.462857 14.628571 8.777143 29.257143 23.405714 32.182857 17.554286 2.925714 33.645714-8.777143 35.108572-24.868572 5.851429-65.828571-11.702857-131.657143-51.2-187.245714-27.794286-39.497143-65.828571-70.217143-108.251429-92.16 30.72-5.851429 62.902857-4.388571 87.771429 5.851429 61.44 24.868571 87.771429 73.142857 99.474286 108.251428 20.48 64.365714 8.777143 143.36-32.182858 206.262857z" fill="#ffffff" opacity=".2" p-id="1728"></path></svg>