<svg version="1.1"
      xmlns="http://www.w3.org/2000/svg"
      xmlns:xlink="http://www.w3.org/1999/xlink"  id="snapshot-15923" width="300" height="400" viewBox="0 0 300 400"><desc>This image was made on Patterninja.com</desc><defs>
<!-- image 78956 -->
<g id="transformed-78956" data-image="78956" transform="translate(-40.819538371434035, 204.2578417822402) rotate(31, 55.819538371434035, 67.7421582177598)"><g><svg version="1.1" width="111.63907674286807px" height="135.4843164355196px" viewBox="0 0 111.63907674286807 135.4843164355196"><g id="original-78956"><svg xmlns="http://www.w3.org/2000/svg" viewBox="0 0 95 115" xmlns:xlink="http://www.w3.org/1999/xlink" version="1.1" preserveAspectRatio="xMidYMid meet">
  <defs>
    <path id="a" d="M1.028 28.704h93.333V.287H1.028z" fill="rgba(0, 0, 0, 1)" stroke="none"/>
    <path id="c" d="M1.244 9.227h3.128V.975H1.244z" fill="rgba(0, 0, 0, 1)" stroke="none"/>
    <path id="e" d="M1.052 17.719H58.82V.44H1.052z" fill="rgba(0, 0, 0, 1)" stroke="none"/>
    <path id="g" d="M.779 24.972h18.308V.996H.779z" fill="rgba(0, 0, 0, 1)" stroke="none"/>
  </defs>
  <g transform="matrix(1 0 0 -1 -.333 115)">
    <mask id="b" fill="#fff" fill-rule="evenodd">
      <use xlink:href="#a"/>
    </mask>
    <path d="M94.36 14.495C94.36 6.647 73.468.287 47.695.287S1.028 6.647 1.028 14.495c0 7.85 20.894 14.21 46.667 14.21 25.773 0 46.667-6.36 46.667-14.21" mask="url(#b)" fill="rgba(88, 89, 91, 0.2)" stroke="none" fill-rule="evenodd"/>
  </g>
  <path fill-rule="evenodd" d="M83.116 78.445c0 20.139-16.325 28.178-36.464 28.178-20.14 0-36.464-8.039-36.464-28.178 0-20.138 16.324-36.464 36.464-36.464 20.139 0 36.464 16.326 36.464 36.464" fill="rgba(244, 244, 245, 1)" stroke="none"/>
  <path fill-rule="evenodd" d="M53.13 42.568c12.388 4.136 21.32 15.82 21.32 29.598 0 17.235-13.972 24.116-31.208 24.116-17.236 0-31.206-6.88-31.206-24.116 0-2.722.349-5.362 1.005-7.88a36.336 36.336 0 0 0-2.853 14.16c0 20.138 16.324 28.176 36.465 28.176 20.137 0 36.463-8.038 36.463-28.177 0-17.925-12.94-32.819-29.986-35.877" fill="rgba(222, 222, 221, 1)" stroke="none"/>
  <path fill-rule="evenodd" d="M71.513 35.087c0 13.732-11.13 24.862-24.861 24.862-13.73 0-24.863-11.13-24.863-24.862 0-13.73 11.133-24.861 24.863-24.861s24.861 11.13 24.861 24.861" fill="rgba(244, 244, 245, 1)" stroke="none"/>
  <path fill-rule="evenodd" d="M52.05 10.822c8.226 3.412 14.014 11.514 14.014 20.973 0 12.539-10.165 22.704-22.708 22.704-9.456 0-17.559-5.787-20.972-14.01 2.468 11.131 12.392 19.46 24.268 19.46 13.73 0 24.861-11.13 24.861-24.862 0-11.875-8.328-21.8-19.462-24.265" fill="rgba(222, 222, 221, 1)" stroke="none"/>
  <path fill-rule="evenodd" d="M11.586 50.841c.473.734.573 1.484.673 2.279.151 1.141.354 2.703 1.871 5.497.381.702.161 1.6-.487 2.012-.649.41-1.493.164-1.862-.524-1.792-3.296-2.048-5.272-2.219-6.576-.081-.637-.59-2.606 0-3.11.593-.496 1.45-.384 1.913.256.04.054.079.11.111.166" fill="rgba(182, 128, 114, 1)" stroke="none"/>
  <path fill-rule="evenodd" d="M20.147 63.038a1.362 1.362 0 0 1-1.907 1.933c-.087-.075-9.06-7.583-15.977-8.583a1.354 1.354 0 0 1-1.15-1.54 1.36 1.36 0 0 1 1.54-1.157c7.69 1.11 16.957 8.873 17.345 9.199.057.046.103.096.15.148" fill="rgba(219, 163, 144, 1)" stroke="none"/>
  <path fill-rule="evenodd" d="M82.85 49.703c-.472.736-.573 1.485-.673 2.28-.15 1.141-.353 2.703-1.87 5.499-.38.7-.162 1.6.486 2.01.65.41 1.493.166 1.863-.524 1.792-3.296 2.049-5.272 2.218-6.576.082-.637.592-2.606 0-3.108-.593-.498-1.45-.386-1.912.254-.04.053-.08.11-.112.165" fill="rgba(219, 163, 144, 1)" stroke="none"/>
  <path fill-rule="evenodd" d="M74.29 61.9a1.36 1.36 0 0 0-.013 1.773 1.36 1.36 0 0 0 1.919.163c.089-.075 9.06-7.586 15.978-8.584a1.355 1.355 0 0 0 1.151-1.543 1.359 1.359 0 0 0-1.541-1.153c-7.69 1.11-16.956 8.872-17.346 9.198-.056.046-.101.096-.148.146" fill="rgba(182, 128, 114, 1)" stroke="none"/>
  <path fill-rule="evenodd" d="M67.168 52.544C65.408 62.74 77.473 77.34 77.42 81.302c-.053 3.966-14.67 11.349-11.496 4.982 3.172-6.366-12.687-23.817-6.472-32.377l7.716-1.363z" fill="rgba(245, 140, 142, 1)" stroke="none"/>
  <g transform="matrix(1 0 0 -1 63.667 61.667)">
    <mask id="d" fill="#fff" fill-rule="evenodd">
      <use xlink:href="#c"/>
    </mask>
    <path d="M1.243 8.828c.482-2.587 1.655-5.256 3.13-7.853-.886 2.87-1.314 5.698-.872 8.252l-2.258-.399z" mask="url(#d)" fill="rgba(63, 103, 166, 0.2)" stroke="none" fill-rule="evenodd"/>
  </g>
  <path fill-rule="evenodd" d="M45.81 65.227c-15.39 0-24.981-7.278-25.57-7.738a5.682 5.682 0 0 1 6.96-8.982c.734.552 16.52 12.05 40.28-.522a5.683 5.683 0 0 1 5.314 10.047c-10.172 5.38-19.301 7.195-26.984 7.195" fill="rgba(245, 140, 142, 1)" stroke="none"/>
  <g transform="matrix(1 0 0 -1 17 65.667)">
    <mask id="f" fill="#fff" fill-rule="evenodd">
      <use xlink:href="#e"/>
    </mask>
    <path d="M58.159 15.315a5.646 5.646 0 0 1-2.462 2.404 5.323 5.323 0 0 0 1.062-1.365 5.4 5.4 0 0 0-2.247-7.298c-9.668-5.113-18.345-6.838-25.647-6.838-14.626 0-23.74 6.916-24.3 7.352a5.4 5.4 0 0 0-.937 7.58c.16.205.345.378.53.554a5.618 5.618 0 0 1-1.905-1.552 5.683 5.683 0 0 1 .987-7.976C3.828 7.718 13.42.44 28.81.44c7.682 0 16.813 1.815 26.985 7.195a5.682 5.682 0 0 1 2.364 7.68" mask="url(#f)" fill="rgba(245, 140, 142, 0.5)" stroke="none" fill-rule="evenodd"/>
  </g>
  <path fill-rule="evenodd" d="M37.749 34.548a3.408 3.408 0 1 1-6.817 0 3.408 3.408 0 0 1 6.817 0" fill="rgba(86, 87, 87, 1)" stroke="none"/>
  <path fill-rule="evenodd" d="M60.477 34.548a3.407 3.407 0 1 1-6.815 0 3.407 3.407 0 1 1 6.815 0" fill="rgba(86, 87, 87, 1)" stroke="none"/>
  <path fill-rule="evenodd" d="M60.715 14.352l.701-3.944a8.006 8.006 0 0 0-6.481-9.287L50.992.42a8.007 8.007 0 0 0-9.285 6.482l-.702 3.942 19.71 3.508z" fill="rgba(86, 87, 87, 1)" stroke="none"/>
  <path fill-rule="evenodd" d="M62.257 13.435l-1.44-.256L41.41 9.727l-2.158-.385a1.222 1.222 0 0 0-1.41.985 1.22 1.22 0 0 0 .985 1.412l2.156.385 19.41 3.45 1.438.257a1.216 1.216 0 1 0 .427-2.396" fill="rgba(86, 87, 87, 1)" stroke="none"/>
  <path fill-rule="evenodd" d="M61.417 10.407l-.121-.02-19.407-3.454-.181-.03-.283 1.575.183.032 19.408 3.455.12.021z" fill="rgba(244, 244, 245, 1)" stroke="none"/>
  <path fill-rule="evenodd" d="M48.232 72.342a3.097 3.097 0 1 1-6.194-.001 3.097 3.097 0 0 1 6.194.001" fill="rgba(76, 182, 175, 1)" stroke="none"/>
  <path fill-rule="evenodd" d="M48.232 83.706a3.096 3.096 0 1 1-6.192 0 3.096 3.096 0 0 1 6.192 0" fill="rgba(76, 182, 175, 1)" stroke="none"/>
  <g transform="matrix(1 0 0 -1 58.333 89.667)">
    <mask id="h" fill="#fff" fill-rule="evenodd">
      <use xlink:href="#g"/>
    </mask>
    <path d="M9.76 6.056c1.412 4.2-5.084 11.641-8.98 18.916C3.421 16.82 9.695 7.712 7.59 3.487 4.418-2.88 19.034 4.503 19.087 8.469c.004.236-.039.515-.117.826C15.628 5.22 8.012.85 9.76 6.056" mask="url(#h)" fill="rgba(245, 140, 142, 0.5)" stroke="none" fill-rule="evenodd"/>
  </g>
</svg>
</g></svg></g></g>
<!-- /image 78956 -->

<!-- image 71977 -->
<g id="transformed-71977" data-image="71977" transform="translate(60.286890084580435, 69.951807188341) rotate(41, 34.713109915419565, 28.04819281165901)"><g><svg version="1.1" width="69.42621983083913px" height="56.09638562331802px" viewBox="0 0 69.42621983083913 56.09638562331802"><g id="original-71977"><svg xmlns="http://www.w3.org/2000/svg" viewBox="0 0 110 89" xmlns:xlink="http://www.w3.org/1999/xlink" version="1.1" preserveAspectRatio="xMidYMid meet">
  <defs>
    <path id="a" d="M1.307 28.633h106.657V.215H1.307z" fill="rgba(0, 0, 0, 1)" stroke="none"/>
    <path id="c" d="M.392 61.908h26.557V.593H.392z" fill="rgba(0, 0, 0, 1)" stroke="none"/>
    <path id="e" d="M.393 23.763h47.356V.964H.393z" fill="rgba(0, 0, 0, 1)" stroke="none"/>
    <path id="g" d="M.672 13.469h12.087V.777H.672z" fill="rgba(0, 0, 0, 1)" stroke="none"/>
    <path id="i" d="M.732 38.081h39.513V1.284H.732z" fill="rgba(0, 0, 0, 1)" stroke="none"/>
    <path id="k" d="M1.215 31.125h48.148V1.221H1.215z" fill="rgba(0, 0, 0, 1)" stroke="none"/>
    <path id="m" d="M.593 22.016h36.731V.591H.593z" fill="rgba(0, 0, 0, 1)" stroke="none"/>
    <path id="o" d="M.497 7.956H11.68V1.12H.497z" fill="rgba(0, 0, 0, 1)" stroke="none"/>
    <path id="q" d="M.064 29.448h30.675V.588H.064z" fill="rgba(0, 0, 0, 1)" stroke="none"/>
    <path id="s" d="M1.133 2.203h15.592V.24H1.133z" fill="rgba(0, 0, 0, 1)" stroke="none"/>
    <path id="u" d="M.001 6.951h2.658V.317H.001z" fill="rgba(0, 0, 0, 1)" stroke="none"/>
    <path id="w" d="M.131 6.531h.861V.232H.131z" fill="rgba(0, 0, 0, 1)" stroke="none"/>
    <path id="y" d="M.287 7.451h5.234V.248H.287z" fill="rgba(0, 0, 0, 1)" stroke="none"/>
    <path id="A" d="M.859 2.445h5.474V1.14H.859z" fill="rgba(0, 0, 0, 1)" stroke="none"/>
    <path id="C" d="M1.055 6.473h7.22V.943h-7.22z" fill="rgba(0, 0, 0, 1)" stroke="none"/>
    <path id="E" d="M.068 4.369h5.44V.104H.068z" fill="rgba(0, 0, 0, 1)" stroke="none"/>
    <path id="G" d="M1.201 4.235h3.975V.507H1.201z" fill="rgba(0, 0, 0, 1)" stroke="none"/>
    <path id="I" d="M.679 3.383H4.7V.008H.679z" fill="rgba(0, 0, 0, 1)" stroke="none"/>
  </defs>
  <g transform="matrix(1 0 0 -1 -.333 88.667)">
    <mask id="b" fill="#fff" fill-rule="evenodd">
      <use xlink:href="#a"/>
    </mask>
    <path d="M107.964 14.423c0-7.848-23.875-14.208-53.328-14.208-29.452 0-53.328 6.36-53.328 14.208 0 7.85 23.876 14.21 53.328 14.21 29.453 0 53.328-6.36 53.328-14.21" mask="url(#b)" fill="rgba(88, 89, 91, 0.2)" stroke="none" fill-rule="evenodd"/>
  </g>
  <path fill-rule="evenodd" d="M.604 51.487c-2.888 6.063 7.663 17.12 23.567 24.695 15.904 7.584 31.14 8.81 34.025 2.748 2.89-6.063-7.663-17.123-23.565-24.695C18.725 46.656 3.492 45.427.604 51.487" fill="rgba(179, 179, 180, 1)" stroke="none"/>
  <path fill-rule="evenodd" d="M23.78 32.768c4.432-9.3 13.595-18.877 27.021-12.481 13.43 6.4 11.76 19.55 7.33 28.85-4.427 9.298 2.762 24.131-.003 29.943L30.249 63.422.532 51.635c2.768-5.81 18.823-9.572 23.248-18.867" fill="rgba(179, 179, 180, 1)" stroke="none"/>
  <path fill-rule="evenodd" d="M.575 51.56c.008-.024.02-.05.028-.073.224-.471.531-.896.904-1.28 4.428-5.06 18.22-8.926 22.272-17.44 4.434-9.298 13.596-18.876 27.022-12.48 13.43 6.4 11.76 19.549 7.33 28.852-4.052 8.509 1.626 21.658.492 28.28a4.926 4.926 0 0 1-.426 1.51c-.012.027-.027.047-.039.07-.012.025-.02.056-.03.082l-.013-.008c-3.062 5.896-18.172 4.63-33.945-2.89C8.394 68.669-2.105 57.729.543 51.639l-.01-.003c.012-.027.03-.05.042-.076" fill="rgba(252, 207, 198, 1)" stroke="none"/>
  <g transform="matrix(1 0 0 -1 33 82)">
    <mask id="d" fill="#fff" fill-rule="evenodd">
      <use xlink:href="#c"/>
    </mask>
    <path d="M16.626 1.508l.008-.003c.014.024.023.052.034.074.01.022.024.044.034.065.214.452.342.932.407 1.437 1.077 6.29-4.324 18.784-.467 26.875 4.21 8.833 5.795 21.328-6.965 27.407-3.384 1.612-6.479 2.15-9.285 1.913 4.376 2.872 9.912 3.82 16.545.659 12.76-6.08 11.173-18.57 6.965-27.403-3.856-8.095 1.542-20.584.468-26.879a4.69 4.69 0 0 0-.408-1.43c-.01-.024-.025-.046-.032-.067-.01-.023-.021-.055-.034-.077l-.008.005c-1.13-2.167-3.971-3.31-7.898-3.49.25.28.466.586.636.914" mask="url(#d)" fill="rgba(252, 207, 198, 0.8)" stroke="none" fill-rule="evenodd"/>
  </g>
  <path fill-rule="evenodd" d="M2.055 52.18c-2.579 5.418 7.568 15.645 22.67 22.844 15.1 7.192 29.432 8.634 32.019 3.216 2.585-5.424-7.565-15.65-22.67-22.847-15.097-7.197-29.435-8.632-32.02-3.213" fill="rgba(245, 140, 142, 1)" stroke="none"/>
  <g transform="matrix(1 0 0 -1 7.667 72.667)">
    <mask id="f" fill="#fff" fill-rule="evenodd">
      <use xlink:href="#e"/>
    </mask>
    <path d="M47.749 1.083C41.62.403 31.853 2.633 21.73 7.458 11.614 12.278 3.725 18.463.393 23.643c6.125.683 15.894-1.549 26.014-6.369C36.531 12.45 44.413 6.271 47.75 1.084" mask="url(#f)" fill="rgba(252, 207, 198, 1)" stroke="none" fill-rule="evenodd"/>
  </g>
  <path fill-rule="evenodd" d="M38.676 59.06c-.046 2.263-.51 4.519-1.218 6.003-1.717 3.6-5.496 4.03-9.092 2.317-3.596-1.71-5.644-4.924-3.93-8.52.708-1.488 2.17-3.27 3.892-4.73a69.52 69.52 0 0 1 5.276 2.255 68.904 68.904 0 0 1 5.072 2.675" fill="rgba(252, 207, 198, 1)" stroke="none"/>
  <g transform="matrix(1 0 0 -1 23.667 68.667)">
    <mask id="h" fill="#fff" fill-rule="evenodd">
      <use xlink:href="#g"/>
    </mask>
    <path d="M4.323 13.469c-.813-.915-1.476-1.86-1.877-2.698-1.584-3.329.308-6.297 3.633-7.884 2.397-1.137 4.883-1.246 6.68.035C11.009.435 7.872.242 4.878 1.67 1.55 3.255-.345 6.223 1.24 9.554c.586 1.221 1.72 2.66 3.083 3.915" mask="url(#h)" fill="rgba(252, 207, 198, 1)" stroke="none" fill-rule="evenodd"/>
  </g>
  <g transform="matrix(1 0 0 -1 5 62)">
    <mask id="j" fill="#fff" fill-rule="evenodd">
      <use xlink:href="#i"/>
    </mask>
    <path d="M27.038 38.08s-4.196-2.991-6.622-8.414c-2.422-5.416-5.734-8.044-8.993-9.897-3.257-1.85-7.596-3.56-10.69-6.308 0 0 14.346 4.172 39.511-12.178 0 0-7.797 8.076-16.26 12.426-8.466 4.345-3.664 15.924 3.054 24.372" mask="url(#j)" fill="rgba(252, 207, 198, 1)" stroke="none" fill-rule="evenodd"/>
  </g>
  <path fill-rule="evenodd" d="M63.841 66.19c2.742 4.7 14.963 2.685 27.299-4.508 12.336-7.19 20.117-16.83 17.373-21.53-2.741-4.705-14.965-2.686-27.298 4.505C68.879 51.849 61.1 61.49 63.84 66.19" fill="rgba(179, 179, 180, 1)" stroke="none"/>
  <path fill-rule="evenodd" d="M61.887 42.12c-4.204-7.21-6.436-17.722 3.977-23.792 10.417-6.072 18.463 1.05 22.665 8.264 4.207 7.208 17.424 9.166 20.052 13.67L85.368 51.784l-21.46 14.521c-2.628-4.508 2.183-16.975-2.021-24.185" fill="rgba(179, 179, 180, 1)" stroke="none"/>
  <path fill-rule="evenodd" d="M63.878 66.242c-.014-.019-.027-.033-.036-.052a3.92 3.92 0 0 1-.446-1.193c-1.365-5.27 2.34-16.274-1.51-22.878-4.203-7.21-6.435-17.72 3.978-23.792 10.418-6.072 18.463 1.051 22.666 8.264 3.85 6.6 15.25 8.8 19.165 12.583.325.287.604.607.819.977l.029.055c.012.02.027.039.037.057l-.008.006c2.55 4.741-5.196 14.282-17.433 21.413-12.233 7.133-24.353 9.172-27.225 4.617l-.007.006c-.01-.019-.017-.042-.03-.063" fill="rgba(252, 207, 198, 1)" stroke="none"/>
  <g transform="matrix(1 0 0 -1 58.333 48.667)">
    <mask id="l" fill="#fff" fill-rule="evenodd">
      <use xlink:href="#k"/>
    </mask>
    <path d="M47.314 2.065l.005.003c-.012.021-.025.038-.033.057l-.03.052c-.202.35-.469.656-.775.927C42.758 6.7 31.927 8.786 28.27 15.062c-3.995 6.855-11.637 13.62-21.535 7.85-2.625-1.532-4.397-3.36-5.52-5.344.074 4.242 1.967 8.38 7.112 11.38 9.899 5.768 17.538-.998 21.532-7.847 3.66-6.279 14.488-8.364 18.21-11.957.309-.274.573-.579.776-.93.012-.016.018-.037.03-.05.01-.02.024-.039.036-.06l-.008-.003c.938-1.744.404-4.17-1.268-6.88-.073.297-.18.581-.321.844" mask="url(#l)" fill="rgba(252, 207, 198, 0.8)" stroke="none" fill-rule="evenodd"/>
  </g>
  <path fill-rule="evenodd" d="M64.967 65.534c2.452 4.203 13.934 2.076 25.648-4.752 11.712-6.83 19.22-15.772 16.771-19.975-2.45-4.205-13.933-2.078-25.647 4.75-11.714 6.826-19.22 15.772-16.772 19.977" fill="rgba(245, 140, 142, 1)" stroke="none"/>
  <g transform="matrix(1 0 0 -1 65 60.667)">
    <mask id="n" fill="#fff" fill-rule="evenodd">
      <use xlink:href="#m"/>
    </mask>
    <path d="M37.324 22.01c-2.342-4.417-8.296-9.937-16.145-14.513C13.329 2.922 5.586.461.594.596 2.936 5.01 8.89 10.534 16.74 15.109c7.85 4.576 15.59 7.035 20.584 6.901" mask="url(#n)" fill="rgba(252, 207, 198, 1)" stroke="none" fill-rule="evenodd"/>
  </g>
  <path fill-rule="evenodd" d="M86.296 44.148c1.493 1.066 2.792 2.407 3.464 3.56 1.625 2.792.189 5.52-2.602 7.146-2.786 1.625-5.873 1.532-7.5-1.258-.672-1.153-1.197-2.945-1.39-4.765a56.23 56.23 0 0 1 3.92-2.505 56.464 56.464 0 0 1 4.108-2.178" fill="rgba(252, 207, 198, 1)" stroke="none"/>
  <g transform="matrix(1 0 0 -1 78.333 56.667)">
    <mask id="p" fill="#fff" fill-rule="evenodd">
      <use xlink:href="#o"/>
    </mask>
    <path d="M.497 7.122c.24-.96.57-1.836.948-2.486 1.507-2.582 4.358-2.67 6.938-1.167 1.858 1.085 3.065 2.7 3.029 4.487.865-2.307-.439-4.495-2.761-5.85C6.07.601 3.215.69 1.71 3.27 1.159 4.218.715 5.638.497 7.122" mask="url(#p)" fill="rgba(252, 207, 198, 1)" stroke="none" fill-rule="evenodd"/>
  </g>
  <g transform="matrix(1 0 0 -1 59.667 62)">
    <mask id="r" fill="#fff" fill-rule="evenodd">
      <use xlink:href="#q"/>
    </mask>
    <path d="M.064 29.448s.088-4.177 2.61-8.276C5.2 17.076 5.446 13.659 5.2 10.63 4.95 7.604 4.115 3.92 4.543.588c0 0 3.756 11.516 26.196 20.904 0 0-8.971-1.536-15.748-5.216C8.213 12.59 2.653 21.09.064 29.448" mask="url(#r)" fill="rgba(252, 207, 198, 1)" stroke="none" fill-rule="evenodd"/>
  </g>
  <path fill-rule="evenodd" d="M47.138 12.161v6.511c0 1 3.637 1.812 8.125 1.812 4.487 0 8.124-.812 8.124-1.812v-6.51H47.138z" fill="rgba(210, 179, 107, 1)" stroke="none"/>
  <path fill-rule="evenodd" d="M61.117 9.966c-2.077-.877-1.764-1.393-2.553-2.615-.79-1.22-2.575-1.333-3.301-1.333-.728 0-2.512.112-3.3 1.333-.79 1.222-.48 1.738-2.556 2.615-2.075.877-2.268 1.593-2.268 2.195 0 .608 8.124.665 8.124.665s8.124-.057 8.124-.665c0-.602-.194-1.318-2.27-2.195" fill="rgba(210, 179, 107, 1)" stroke="none"/>
  <g transform="matrix(1 0 0 -1 46.333 14)">
    <mask id="t" fill="#fff" fill-rule="evenodd">
      <use xlink:href="#s"/>
    </mask>
    <path d="M8.93.693c-3.962 0-7.224.658-7.723 1.51a.436.436 0 0 1-.075-.226c0-.959 3.492-1.738 7.798-1.738 4.305 0 7.796.779 7.796 1.738 0 .077-.03.153-.074.226-.5-.852-3.762-1.51-7.722-1.51" mask="url(#t)" fill="rgba(210, 179, 107, 0.6)" stroke="none" fill-rule="evenodd"/>
  </g>
  <g transform="matrix(1 0 0 -1 58.333 20.667)">
    <mask id="v" fill="#fff" fill-rule="evenodd">
      <use xlink:href="#u"/>
    </mask>
    <path d="M.001.318c1 .093 1.903.226 2.658.393v6.24C1.904 6.787 1 6.651 0 6.561V.317z" mask="url(#v)" fill="rgba(210, 179, 107, 0.5)" stroke="none" fill-rule="evenodd"/>
  </g>
  <g transform="matrix(1 0 0 -1 57 20.667)">
    <mask id="x" fill="#fff" fill-rule="evenodd">
      <use xlink:href="#w"/>
    </mask>
    <path d="M.13.232c.295.018.58.036.862.06v6.24a32.952 32.952 0 0 0-.862-.058V.232z" mask="url(#x)" fill="rgba(210, 179, 107, 0.8)" stroke="none" fill-rule="evenodd"/>
  </g>
  <g transform="matrix(1 0 0 -1 47.667 20.667)">
    <mask id="z" fill="#fff" fill-rule="evenodd">
      <use xlink:href="#y"/>
    </mask>
    <path d="M.286 1.208C1.31.736 3.21.38 5.521.247v6.237c-2.31.139-4.21.495-5.235.967V1.208z" mask="url(#z)" fill="rgba(210, 179, 107, 0.6)" stroke="none" fill-rule="evenodd"/>
  </g>
  <g transform="matrix(1 0 0 -1 51.667 8.667)">
    <mask id="B" fill="#fff" fill-rule="evenodd">
      <use xlink:href="#A"/>
    </mask>
    <path d="M6.333 1.56c0-.323-1.225-.419-2.737-.419S.859 1.237.859 1.56c0 .317 1.225.885 2.737.885s2.737-.568 2.737-.885" mask="url(#B)" fill="rgba(210, 179, 107, 0.6)" stroke="none" fill-rule="evenodd"/>
  </g>
  <g transform="matrix(1 0 0 -1 54.333 14)">
    <mask id="D" fill="#fff" fill-rule="evenodd">
      <use xlink:href="#C"/>
    </mask>
    <path d="M3.857 6.474s.5-1.232 1.204-1.896c.706-.667 2.844-1.352 3.156-1.81.31-.455-.415-1.825-7.163-1.825 0 0 7.743.726 5.44 1.952C4.19 4.12 3.857 6.474 3.857 6.474" mask="url(#D)" fill="rgba(210, 179, 107, 0.8)" stroke="none" fill-rule="evenodd"/>
  </g>
  <path fill-rule="evenodd" d="M55.263.11c-.987 0-1.784 1.565-1.784 3.494 0 1.021.227 1.935.584 2.576a.53.53 0 0 1 .297-.09c.012 0 .023.006.04.006-.34-.575-.562-1.47-.562-2.492 0-1.75.636-3.167 1.425-3.167.788 0 1.425 1.418 1.425 3.167 0 1.75-.637 3.164-1.425 3.164-.015 0-.028-.005-.04-.005a.64.64 0 0 1-.005.325c.014.003.028.01.045.01.984 0 1.784-1.562 1.784-3.494 0-1.93-.8-3.495-1.784-3.495" fill="rgba(172, 139, 76, 1)" stroke="none"/>
  <path fill-rule="evenodd" d="M61.742 24.044s4.461.68 6.903 3.33c0 0-2.138-2.426-7.003-3.015 0 0-.233-.25.1-.315" fill="rgba(95, 125, 61, 1)" stroke="none"/>
  <path fill-rule="evenodd" d="M63.378 28.836c1.728 1.797 3.717 6.303 3.214 8.31-.505 2.007-.79-2.19-2.682-.971-1.888 1.216.392 6.869 3.046 7.025 1.655.097-1.632 1.227-2.213 5.592-.581 4.364-1.844 6.793-3.59 8.721 0 0-.834.271-1.47-1.62-2.29-6.806-6.04-4.169-5.23-6.349.807-2.18 3.2-6.945-.154-8.263-2.516-.986-1.108 2.61-2.13 1.618-1.023-.99-4.65-8.386 2.08-13.399 5.289-3.937 8.122-1.71 9.129-.664" fill="rgba(54, 144, 138, 1)" stroke="none"/>
  <path fill-rule="evenodd" d="M61.932 48.18s-1.065 3.346-3.4 4.901c0 0 2.124-1.35 3.17-5.016 0 0 .218-.148.23.115" fill="rgba(76, 182, 175, 1)" stroke="none"/>
  <path fill-rule="evenodd" d="M59.936 38.982s-1.065 3.35-3.399 4.901c0 0 2.124-1.35 3.172-5.016 0 0 .218-.148.227.115" fill="rgba(76, 182, 175, 1)" stroke="none"/>
  <path fill-rule="evenodd" d="M58.379 34.159s-1.423 4.476-4.55 6.554c0 0 2.847-1.806 4.242-6.71 0 0 .293-.196.308.156" fill="rgba(76, 182, 175, 1)" stroke="none"/>
  <path fill-rule="evenodd" d="M56.76 30.404s-1.428 4.48-4.55 6.557c0 0 2.846-1.805 4.242-6.71 0 0 .295-.2.307.153" fill="rgba(76, 182, 175, 1)" stroke="none"/>
  <path fill-rule="evenodd" d="M61.283 43.927s-1.066 3.35-3.402 4.904c0 0 2.13-1.35 3.17-5.019 0 0 .224-.148.232.115" fill="rgba(76, 182, 175, 1)" stroke="none"/>
  <path fill-rule="evenodd" d="M61.388 45.529s1.127 1.768 2.715 2.309c0 0-1.435-.455-2.602-2.41 0 0-.15-.05-.113.1" fill="rgba(76, 182, 175, 1)" stroke="none"/>
  <path fill-rule="evenodd" d="M60.585 41.706s1.865 2.12 4.085 2.508c0 0-1.997-.306-3.953-2.667 0 0-.211-.036-.132.159" fill="rgba(76, 182, 175, 1)" stroke="none"/>
  <path fill-rule="evenodd" d="M58.926 36.3s1.862 2.12 4.085 2.505c0 0-2.003-.308-3.956-2.664 0 0-.21-.036-.13.158" fill="rgba(76, 182, 175, 1)" stroke="none"/>
  <path fill-rule="evenodd" d="M57.592 32.565s3.46 2.161 6.691 1.776c0 0-2.893.407-6.577-2.052 0 0-.304.036-.114.276" fill="rgba(76, 182, 175, 1)" stroke="none"/>
  <path fill-rule="evenodd" d="M56.276 28.927s8.63 17.53 4.783 28.21c0 0 3.705-9.694-5.231-27.91 0 0 .119-.636.428-.33" fill="rgba(76, 182, 175, 1)" stroke="none"/>
  <path fill-rule="evenodd" d="M56.47 19.411c-1.412-2.062-5.417-4.924-7.488-4.838-2.067.084 1.988 1.221.407 2.822-1.576 1.602-6.648-1.78-6.262-4.408.24-1.644-1.534 1.346-5.924 1.028-4.389-.317-7.026.424-9.269 1.746 0 0-.435.754 1.29 1.762 6.2 3.628 2.851 6.763 5.153 6.415 2.296-.35 7.45-1.721 8.058 1.83.451 2.662-2.781.553-2.018 1.758.764 1.2 7.265 6.257 13.542.685 4.931-4.376 3.326-7.605 2.511-8.8" fill="rgba(54, 144, 138, 1)" stroke="none"/>
  <path fill-rule="evenodd" d="M37.233 16.893s-3.497.362-5.49 2.334c0 0 1.753-1.807 5.554-2.088 0 0 .192-.186-.064-.246" fill="rgba(76, 182, 175, 1)" stroke="none"/>
  <path fill-rule="evenodd" d="M45.83 20.714s-3.494.36-5.489 2.333c0 0 1.754-1.807 5.555-2.084 0 0 .19-.187-.067-.25" fill="rgba(76, 182, 175, 1)" stroke="none"/>
  <path fill-rule="evenodd" d="M50.238 23.221s-4.674.484-7.342 3.123c0 0 2.349-2.42 7.433-2.792 0 0 .253-.248-.09-.33" fill="rgba(76, 182, 175, 1)" stroke="none"/>
  <path fill-rule="evenodd" d="M53.59 25.573s-4.679.481-7.347 3.117c0 0 2.347-2.417 7.43-2.786 0 0 .256-.25-.083-.331" fill="rgba(76, 182, 175, 1)" stroke="none"/>
  <path fill-rule="evenodd" d="M41.264 18.393s-3.498.362-5.492 2.33c0 0 1.754-1.803 5.558-2.084 0 0 .188-.186-.066-.246" fill="rgba(76, 182, 175, 1)" stroke="none"/>
  <path fill-rule="evenodd" d="M39.716 17.964s-1.5-1.467-1.707-3.128c0 0 .151 1.497 1.828 3.037 0 0 .02.159-.12.09" fill="rgba(76, 182, 175, 1)" stroke="none"/>
  <path fill-rule="evenodd" d="M43.297 19.529s-1.696-2.26-1.624-4.514c0 0-.108 2.019 1.807 4.415 0 0-.01.213-.183.099" fill="rgba(76, 182, 175, 1)" stroke="none"/>
  <path fill-rule="evenodd" d="M48.255 22.25s-1.698-2.26-1.625-4.508c0 0-.107 2.021 1.808 4.415 0 0-.01.21-.183.093" fill="rgba(76, 182, 175, 1)" stroke="none"/>
  <path fill-rule="evenodd" d="M51.64 24.315s-1.413-3.825-.38-6.912c0 0-.989 2.75.673 6.852 0 0-.099.295-.294.06" fill="rgba(76, 182, 175, 1)" stroke="none"/>
  <path fill-rule="evenodd" d="M54.935 26.344S39.519 14.328 28.283 15.928c0 0 10.247-1.66 26.27 10.793 0 0 .642.013.407-.35" fill="rgba(76, 182, 175, 1)" stroke="none"/>
  <path fill-rule="evenodd" d="M59.052 16.466c1.567-1.943 5.784-4.484 7.84-4.24 2.053.245-2.076 1.057-.625 2.784 1.446 1.719 6.764-1.257 6.586-3.91-.117-1.658 1.422 1.462 5.828 1.489 4.4.022 6.971.965 9.104 2.456 0 0 .374.79-1.424 1.661-6.46 3.135-3.369 6.52-5.637 5.997-2.265-.532-7.292-2.3-8.173 1.192-.662 2.62 2.726.771 1.872 1.91-.852 1.137-7.732 5.672-13.555-.367-4.573-4.75-2.724-7.839-1.816-8.972" fill="rgba(54, 144, 138, 1)" stroke="none"/>
  <path fill-rule="evenodd" d="M78.425 15.453s3.458.63 5.294 2.752c0 0-1.608-1.937-5.378-2.51 0 0-.172-.2.084-.242" fill="rgba(76, 182, 175, 1)" stroke="none"/>
  <path fill-rule="evenodd" d="M69.556 18.591s3.457.639 5.292 2.758c0 0-1.607-1.938-5.377-2.51 0 0-.174-.201.085-.248" fill="rgba(76, 182, 175, 1)" stroke="none"/>
  <path fill-rule="evenodd" d="M64.965 20.753s4.622.844 7.081 3.682c0 0-2.152-2.597-7.197-3.36 0 0-.232-.268.116-.322" fill="rgba(76, 182, 175, 1)" stroke="none"/>
  <path fill-rule="evenodd" d="M61.444 22.833s4.627.85 7.083 3.683c0 0-2.151-2.597-7.195-3.36 0 0-.232-.265.112-.323" fill="rgba(76, 182, 175, 1)" stroke="none"/>
  <path fill-rule="evenodd" d="M74.292 16.635s3.456.634 5.292 2.751c0 0-1.608-1.939-5.376-2.51 0 0-.174-.2.084-.24" fill="rgba(76, 182, 175, 1)" stroke="none"/>
  <path fill-rule="evenodd" d="M75.867 16.328s1.61-1.344 1.944-2.981c0 0-.266 1.476-2.058 2.88 0 0-.034.156.114.101" fill="rgba(76, 182, 175, 1)" stroke="none"/>
  <path fill-rule="evenodd" d="M72.176 17.607s1.864-2.12 1.966-4.37c0 0-.049 2.02-2.142 4.258 0 0-.01.216.176.112" fill="rgba(76, 182, 175, 1)" stroke="none"/>
  <path fill-rule="evenodd" d="M67.02 19.94s1.867-2.123 1.969-4.372c0 0-.048 2.023-2.14 4.263 0 0-.01.21.172.11" fill="rgba(76, 182, 175, 1)" stroke="none"/>
  <path fill-rule="evenodd" d="M63.482 21.734s1.71-3.705.92-6.86c0 0 .77 2.82-1.204 6.778 0 0 .073.301.284.082" fill="rgba(76, 182, 175, 1)" stroke="none"/>
  <path fill-rule="evenodd" d="M60.042 23.497s16.305-10.778 27.38-8.312c0 0-10.084-2.45-27.028 8.719 0 0-.642-.037-.38-.383" fill="rgba(76, 182, 175, 1)" stroke="none"/>
  <path fill-rule="evenodd" d="M61.525 28.529a4.682 4.682 0 0 1-6.615-.31 4.68 4.68 0 0 1 .305-6.617 4.685 4.685 0 1 1 6.31 6.927" fill="rgba(245, 140, 142, 1)" stroke="none"/>
  <path fill-rule="evenodd" d="M61.369 23.164a6.797 6.797 0 0 1-9.603-.448 6.793 6.793 0 0 1 .45-9.601 6.796 6.796 0 1 1 9.153 10.049" fill="rgba(245, 140, 142, 1)" stroke="none"/>
  <path fill-rule="evenodd" d="M63.215 17.206a6.494 6.494 0 0 1-12.85.073 6.494 6.494 0 1 0 12.85-.073" fill="rgba(242, 109, 110, 1)" stroke="none"/>
  <g transform="matrix(1 0 0 -1 54.333 16.667)">
    <mask id="F" fill="#fff" fill-rule="evenodd">
      <use xlink:href="#E"/>
    </mask>
    <path d="M2.665.11C1.165.196.001 1.22.072 2.392.137 3.567 1.409 4.45 2.909 4.363c1.503-.085 2.664-1.11 2.596-2.283C5.436.91 4.165.027 2.665.11" mask="url(#F)" fill="rgba(245, 140, 142, 0.4)" stroke="none" fill-rule="evenodd"/>
  </g>
  <path fill-rule="evenodd" d="M58.499 28.016a5.355 5.355 0 0 0 5.978 4.653 5.353 5.353 0 0 0 4.658-5.976 5.36 5.36 0 0 0-10.636 1.323" fill="rgba(245, 140, 142, 1)" stroke="none"/>
  <path fill-rule="evenodd" d="M60.45 23.5a5.102 5.102 0 0 0-.766 3.388 5.115 5.115 0 0 0 5.712 4.445 5.096 5.096 0 0 0 2.71-1.202 5.114 5.114 0 0 1-3.68 2.328 5.125 5.125 0 0 1-5.715-4.448 5.112 5.112 0 0 1 1.738-4.511" fill="rgba(242, 109, 110, 1)" stroke="none"/>
  <g transform="matrix(1 0 0 -1 62.333 27.333)">
    <mask id="H" fill="#fff" fill-rule="evenodd">
      <use xlink:href="#G"/>
    </mask>
    <path d="M2.17 1.034c.946-.716 2.166-.7 2.723.036.566.737.254 1.92-.686 2.639-.943.716-2.166.697-2.726-.036-.56-.74-.252-1.92.69-2.64" mask="url(#H)" fill="rgba(245, 140, 142, 0.4)" stroke="none" fill-rule="evenodd"/>
  </g>
  <path fill-rule="evenodd" d="M58.755 30.279a5.162 5.162 0 0 1-9.53-3.967 5.163 5.163 0 0 1 9.53 3.967" fill="rgba(245, 140, 142, 1)" stroke="none"/>
  <path fill-rule="evenodd" d="M58.108 25.586a4.904 4.904 0 0 1-.161 3.341 4.93 4.93 0 0 1-8.652.847 4.917 4.917 0 0 0 2.816 3.104 4.935 4.935 0 0 0 6.45-2.659 4.92 4.92 0 0 0-.453-4.633" fill="rgba(242, 109, 110, 1)" stroke="none"/>
  <g transform="matrix(1 0 0 -1 50.333 27.333)">
    <mask id="J" fill="#fff" fill-rule="evenodd">
      <use xlink:href="#I"/>
    </mask>
    <path d="M3.29.193C2.23-.231 1.1.097.77.93c-.33.828.262 1.844 1.32 2.268 1.06.424 2.188.096 2.518-.737C4.94 1.633 4.348.614 3.29.193" mask="url(#J)" fill="rgba(245, 140, 142, 0.4)" stroke="none" fill-rule="evenodd"/>
  </g>
</svg>
</g></svg></g></g>
<!-- /image 71977 -->

<!-- image 90686 -->
<g id="transformed-90686" data-image="90686" transform="translate(143.3257583582155, 341.4381319651796) rotate(334, 36.6742416417845, 30.561868034820392)"><g><svg version="1.1" width="73.348483283569px" height="61.123736069640785px" viewBox="0 0 73.348483283569 61.123736069640785"><g id="original-90686"><svg xmlns="http://www.w3.org/2000/svg" viewBox="0 0 117 98" xmlns:xlink="http://www.w3.org/1999/xlink" version="1.1" preserveAspectRatio="xMidYMid meet">
  <defs>
    <path id="a" d="M.731 29.592h113.696V0H.731z" fill="rgba(0, 0, 0, 1)" stroke="none"/>
    <path id="c" d="M.576 60.509h32.481V.999H.576z" fill="rgba(0, 0, 0, 1)" stroke="none"/>
  </defs>
  <g transform="matrix(1 0 0 -1 -.333 97.333)">
    <mask id="b" fill="#fff" fill-rule="evenodd">
      <use xlink:href="#a"/>
    </mask>
    <path d="M107.47 10.675C107.47 4.779 83.577 0 54.1 0 24.625 0 .73 4.779.73 10.675c0 5.893 23.895 10.672 53.37 10.672 29.476 0 53.37-4.78 53.37-10.672" mask="url(#b)" fill="rgba(88, 89, 91, 0.2)" stroke="none" fill-rule="evenodd"/>
    <path d="M114.426 24.26c0-2.948-7.242-5.336-16.177-5.336-8.933 0-16.176 2.388-16.176 5.335 0 2.945 7.243 5.333 16.176 5.333 8.935 0 16.177-2.388 16.177-5.333" mask="url(#b)" fill="rgba(88, 89, 91, 0.2)" stroke="none" fill-rule="evenodd"/>
  </g>
  <path fill-rule="evenodd" d="M96.707 83.325c0 6.856-19.156 8.603-42.787 8.603-23.626 0-42.78-2.004-42.78-8.603 0-14.28-6.276-26.753 42.78-26.753s42.787 9.836 42.787 26.753" fill="rgba(244, 244, 245, 1)" stroke="none"/>
  <path fill-rule="evenodd" d="M89.568 64.103c1.084 2.634-15.708 5.157-35.084 5.157-19.378 0-35.632-2.361-35.084-5.157C36.062-20.9 92.598 1.51 95.62 8.293c3.07 6.9-28.727.834-6.052 55.81" fill="rgba(245, 140, 142, 1)" stroke="none"/>
  <g transform="matrix(1 0 0 -1 58.333 66.667)">
    <mask id="d" fill="#fff" fill-rule="evenodd">
      <use xlink:href="#c"/>
    </mask>
    <path d="M32.83 58.937c-.206.464-.671 1.002-1.35 1.572-5.14-5.109-35.283.883-30.364-59.418C11.635.587 27.584 2.205 26.78 4.299 6.6 56.716 35.9 52.036 32.829 58.937" mask="url(#d)" fill="rgba(245, 140, 142, 0.5)" stroke="none" fill-rule="evenodd"/>
  </g>
  <path fill-rule="evenodd" d="M116.193 17.654c0 7.04-5.708 12.748-12.75 12.748-7.038 0-12.745-5.708-12.745-12.748 0-7.04 5.707-12.75 12.745-12.75 7.042 0 12.75 5.71 12.75 12.75" fill="rgba(244, 244, 245, 1)" stroke="none"/>
</svg>
</g></svg></g></g>
<!-- /image 90686 -->

<!-- image 96435 -->
<g id="transformed-96435" data-image="96435" transform="translate(136, 180.81333333333336) rotate(90, 32, 30.186666666666635)"><g><svg version="1.1" width="64px" height="60.37333333333327px" viewBox="0 0 64 60.37333333333327"><g id="original-96435"><svg xmlns="http://www.w3.org/2000/svg" viewBox="0 0 108 102" xmlns:xlink="http://www.w3.org/1999/xlink" version="1.1" preserveAspectRatio="xMidYMid meet">
  <defs>
    <path id="a" d="M0 26.792h106.74V0H0z" fill="rgba(0, 0, 0, 1)" stroke="none"/>
    <path id="c" d="M.817 24.908h22.914V1.187H.817z" fill="rgba(0, 0, 0, 1)" stroke="none"/>
    <path id="e" d="M.803 9.844h9.769V.124H.803z" fill="rgba(0, 0, 0, 1)" stroke="none"/>
    <path id="g" d="M.856 13.423h20.413V.556H.856z" fill="rgba(0, 0, 0, 1)" stroke="none"/>
    <path id="i" d="M.24 7.937h8.504V1.172H.24z" fill="rgba(0, 0, 0, 1)" stroke="none"/>
    <path id="k" d="M.459 20.791h14.029V1.235H.459z" fill="rgba(0, 0, 0, 1)" stroke="none"/>
    <path id="m" d="M.025 9.249h6.698V1.204H.025z" fill="rgba(0, 0, 0, 1)" stroke="none"/>
  </defs>
  <g transform="matrix(1 0 0 -1 .667 101.333)">
    <mask id="b" fill="#fff" fill-rule="evenodd">
      <use xlink:href="#a"/>
    </mask>
    <path d="M106.74 13.396C106.74 5.997 82.846 0 53.37 0 23.895 0 0 5.997 0 13.396c0 7.399 23.895 13.396 53.37 13.396 29.476 0 53.37-5.997 53.37-13.396" mask="url(#b)" fill="rgba(88, 89, 91, 0.2)" stroke="none" fill-rule="evenodd"/>
  </g>
  <path fill-rule="evenodd" d="M67.987 54.474c4.972-.137 14.283 2.984 16.565 6.421 2.283 3.439-4.29-1.778-5.032 2.644-.742 4.42 10.652 8.651 14.446 4.952 2.369-2.31-.38 4.054 5.27 10.77 5.652 6.716 7.54 11.84 8.03 17.002 0 0-.712 1.588-4.36-.016-13.106-5.765-14.252 3.311-16.38-.812-2.127-4.122-5.94-14.045-12.386-10.869-4.828 2.381 2.359 5.136-.473 5.313-2.832.178-18.603-4.414-16.953-21.058 1.297-13.084 8.38-14.266 11.273-14.347" fill="rgba(244, 244, 245, 1)" stroke="none"/>
  <path fill-rule="evenodd" d="M94.557 82.578s3.506 6.067 2.659 11.595c0 0 .865-4.947-3.137-11.41 0 0 .078-.524.478-.185" fill="rgba(205, 204, 204, 1)" stroke="none"/>
  <path fill-rule="evenodd" d="M78.325 73.168s3.504 6.068 2.656 11.593c0 0 .868-4.944-3.134-11.408 0 0 .077-.522.478-.185" fill="rgba(205, 204, 204, 1)" stroke="none"/>
  <path fill-rule="evenodd" d="M69.121 68.988s4.687 8.112 3.553 15.507c0 0 1.16-6.617-4.194-15.261 0 0 .106-.7.641-.246" fill="rgba(205, 204, 204, 1)" stroke="none"/>
  <path fill-rule="evenodd" d="M61.413 66.335s4.69 8.113 3.557 15.505c0 0 1.157-6.616-4.196-15.26 0 0 .107-.7.639-.245" fill="rgba(205, 204, 204, 1)" stroke="none"/>
  <path fill-rule="evenodd" d="M87.42 77.827s3.506 6.068 2.66 11.593c0 0 .867-4.947-3.135-11.41 0 0 .078-.522.474-.183" fill="rgba(205, 204, 204, 1)" stroke="none"/>
  <path fill-rule="evenodd" d="M89.92 79.823s4.123.712 7.047-.905c0 0-2.593 1.508-7.042.6 0 0-.276.154-.004.305" fill="rgba(205, 204, 204, 1)" stroke="none"/>
  <path fill-rule="evenodd" d="M83.21 75.872s5.629.095 9.18-2.66c0 0-3.134 2.54-9.238 2.251 0 0-.337.261.059.41" fill="rgba(205, 204, 204, 1)" stroke="none"/>
  <path fill-rule="evenodd" d="M73.01 71.059s5.631.094 9.18-2.66c0 0-3.136 2.54-9.238 2.253 0 0-.335.26.058.407" fill="rgba(205, 204, 204, 1)" stroke="none"/>
  <path fill-rule="evenodd" d="M65.715 68.008s7.83-2.196 11.605-7.472c0 0-3.29 4.808-11.855 6.93 0 0-.358.503.25.542" fill="rgba(205, 204, 204, 1)" stroke="none"/>
  <path fill-rule="evenodd" d="M58.586 65.059s37.43 10.828 48.003 30.837c0 0-9.312-18.483-48.166-29.776 0 0-.772-1.024.095-1.072" fill="rgba(205, 204, 204, 1)" stroke="none"/>
  <path fill-rule="evenodd" d="M44.82 52.001c-4.928-.693-14.528 1.374-17.178 4.536-2.655 3.16 4.46-1.29 4.704 3.188.242 4.474-11.552 7.408-14.906 3.31-2.097-2.56-.076 4.07-6.44 10.113-6.366 6.047-8.812 10.928-9.876 16.005 0 0 .532 1.654 4.332.468 13.67-4.268 13.799 4.88 16.374 1.019 2.573-3.857 7.464-13.295 13.516-9.421 4.533 2.908-2.916 4.84-.118 5.334 2.792.49 18.978-2.309 19.194-19.038C54.59 54.37 47.682 52.407 44.82 52" fill="rgba(244, 244, 245, 1)" stroke="none"/>
  <path fill-rule="evenodd" d="M15.281 76.969s-4.162 5.637-3.934 11.224c0 0-.308-5.012 4.388-10.988 0 0-.018-.53-.454-.236" fill="rgba(205, 204, 204, 1)" stroke="none"/>
  <path fill-rule="evenodd" d="M32.458 69.428S28.3 75.064 28.53 80.652c0 0-.313-5.01 4.386-10.984 0 0-.023-.534-.458-.24" fill="rgba(205, 204, 204, 1)" stroke="none"/>
  <path fill-rule="evenodd" d="M42.072 66.3s-5.558 7.537-5.26 15.011c0 0-.411-6.706 5.872-14.7 0 0-.03-.705-.612-.312" fill="rgba(205, 204, 204, 1)" stroke="none"/>
  <path fill-rule="evenodd" d="M50.033 64.52s-5.567 7.542-5.266 15.01c0 0-.413-6.704 5.87-14.695 0 0-.028-.708-.604-.314" fill="rgba(205, 204, 204, 1)" stroke="none"/>
  <path fill-rule="evenodd" d="M22.902 73.04s-4.158 5.64-3.934 11.227c0 0-.31-5.01 4.386-10.99 0 0-.02-.53-.452-.237" fill="rgba(205, 204, 204, 1)" stroke="none"/>
  <path fill-rule="evenodd" d="M20.194 74.747s-4.175.246-6.904-1.685c0 0 2.412 1.785 6.933 1.383 0 0 .259.184-.029.302" fill="rgba(205, 204, 204, 1)" stroke="none"/>
  <path fill-rule="evenodd" d="M27.306 71.57s-5.604-.532-8.828-3.669c0 0 2.83 2.873 8.927 3.265 0 0 .306.302-.099.403" fill="rgba(205, 204, 204, 1)" stroke="none"/>
  <path fill-rule="evenodd" d="M37.977 67.92s-5.608-.533-8.824-3.662c0 0 2.832 2.87 8.926 3.267 0 0 .304.294-.102.394" fill="rgba(205, 204, 204, 1)" stroke="none"/>
  <path fill-rule="evenodd" d="M45.566 65.704s-7.534-3.057-10.697-8.72c0 0 2.728 5.148 11.004 8.21 0 0 .3.538-.307.51" fill="rgba(205, 204, 204, 1)" stroke="none"/>
  <path fill-rule="evenodd" d="M52.98 63.57S14.576 70.153 1.84 88.863c0 0 11.314-17.33 51.182-24.224 0 0 .884-.932.027-1.076" fill="rgba(205, 204, 204, 1)" stroke="none"/>
  <path fill-rule="evenodd" d="M43.953 44.237c-.764-4.916 1.155-14.545 4.276-17.244 3.121-2.699-1.221 4.477 3.259 4.656 4.48.177 7.232-11.659 3.086-14.956-2.594-2.056 4.066-.133 10.016-6.59C70.536 3.65 75.378 1.126 80.438-.013c0 0 1.667.507.535 4.326-4.059 13.73 5.088 13.72 1.27 16.356-3.823 2.63-13.183 7.666-9.215 13.657 2.972 4.49 4.793-2.988 5.328-.201.532 2.789-2.027 19.013-18.746 19.48-13.142.369-15.21-6.507-15.657-9.367" fill="rgba(244, 244, 245, 1)" stroke="none"/>
  <path fill-rule="evenodd" d="M68.471 14.324s5.575-4.245 11.164-4.101c0 0-5.016-.233-10.921 4.555 0 0-.528-.015-.243-.454" fill="rgba(205, 204, 204, 1)" stroke="none"/>
  <path fill-rule="evenodd" d="M61.189 31.615s5.576-4.243 11.168-4.1c0 0-5.016-.234-10.923 4.554 0 0-.527-.012-.245-.454" fill="rgba(205, 204, 204, 1)" stroke="none"/>
  <path fill-rule="evenodd" d="M58.206 41.276s7.454-5.675 14.934-5.487c0 0-6.71-.313-14.61 6.092 0 0-.707-.018-.324-.605" fill="rgba(205, 204, 204, 1)" stroke="none"/>
  <path fill-rule="evenodd" d="M56.55 49.26s7.458-5.678 14.931-5.493c0 0-6.709-.312-14.608 6.092 0 0-.706-.016-.322-.6" fill="rgba(205, 204, 204, 1)" stroke="none"/>
  <path fill-rule="evenodd" d="M64.663 22.005s5.574-4.245 11.16-4.105c0 0-5.016-.233-10.92 4.555 0 0-.527-.014-.24-.45" fill="rgba(205, 204, 204, 1)" stroke="none"/>
  <path fill-rule="evenodd" d="M66.324 19.273s.187-4.18-1.788-6.876c0 0 1.823 2.382 1.484 6.91 0 0 .188.256.304-.034" fill="rgba(205, 204, 204, 1)" stroke="none"/>
  <path fill-rule="evenodd" d="M63.254 26.428s-.617-5.593-3.8-8.769c0 0 2.915 2.79 3.401 8.879 0 0 .304.301.399-.11" fill="rgba(205, 204, 204, 1)" stroke="none"/>
  <path fill-rule="evenodd" d="M59.77 37.156s-.62-5.597-3.8-8.766c0 0 2.915 2.784 3.405 8.877 0 0 .3.299.394-.11" fill="rgba(205, 204, 204, 1)" stroke="none"/>
  <path fill-rule="evenodd" d="M57.664 44.779s-3.168-7.49-8.879-10.566c0 0 5.186 2.652 8.374 10.882 0 0 .542.292.505-.316" fill="rgba(205, 204, 204, 1)" stroke="none"/>
  <path fill-rule="evenodd" d="M55.645 52.224S61.65 13.724 80.16.707c0 0-17.158 11.574-23.444 51.544 0 0-.918.893-1.075.042" fill="rgba(205, 204, 204, 1)" stroke="none"/>
  <path fill-rule="evenodd" d="M65.05 56.79c0 5.156-4.186 9.34-9.34 9.34-5.16 0-9.343-4.184-9.343-9.34 0-5.16 4.184-9.34 9.342-9.34 5.155 0 9.34 4.18 9.34 9.34" fill="rgba(107, 155, 210, 1)" stroke="none"/>
  <path fill-rule="evenodd" d="M56.932 49.814c0 7.487-6.066 13.555-13.55 13.555-7.486 0-13.554-6.068-13.554-13.555 0-7.481 6.068-13.552 13.554-13.552 7.484 0 13.55 6.07 13.55 13.552" fill="rgba(76, 182, 175, 1)" stroke="none"/>
  <g transform="matrix(1 0 0 -1 32.667 64)">
    <mask id="d" fill="#fff" fill-rule="evenodd">
      <use xlink:href="#c"/>
    </mask>
    <path d="M17.958 24.908a12.906 12.906 0 0 0 2.984-8.266c0-7.15-5.796-12.944-12.95-12.944-2.652 0-5.12.8-7.174 2.172a12.916 12.916 0 0 1 9.966-4.684c7.148 0 12.946 5.798 12.946 12.948 0 4.495-2.296 8.452-5.772 10.774" mask="url(#d)" fill="rgba(50, 136, 130, 0.5)" stroke="none" fill-rule="evenodd"/>
  </g>
  <g transform="matrix(1 0 0 -1 32.667 49.333)">
    <mask id="f" fill="#fff" fill-rule="evenodd">
      <use xlink:href="#e"/>
    </mask>
    <path d="M8.658 1.948c-2.14-2.093-5.21-2.436-6.85-.759C.17 2.865.575 5.924 2.718 8.02c2.142 2.098 5.209 2.437 6.849.758 1.637-1.674 1.232-4.733-.91-6.83" mask="url(#f)" fill="rgba(76, 182, 175, 0.5)" stroke="none" fill-rule="evenodd"/>
  </g>
  <path fill-rule="evenodd" d="M60.23 60.561C65.05 63.965 71.716 62.82 75.12 58c3.408-4.818 2.257-11.488-2.561-14.894-4.82-3.404-11.487-2.254-14.894 2.566-3.404 4.82-2.253 11.485 2.564 14.89" fill="rgba(245, 140, 142, 1)" stroke="none"/>
  <g transform="matrix(1 0 0 -1 55.333 62.667)">
    <mask id="h" fill="#fff" fill-rule="evenodd">
      <use xlink:href="#g"/>
    </mask>
    <path d="M.86 11.043a10.155 10.155 0 0 1 3.965-5.679C9.43 2.112 15.797 3.21 19.05 7.814a10.135 10.135 0 0 1 1.865 5.609 10.177 10.177 0 0 0-1.517-8.547C16.146.271 9.777-.825 5.174 2.426a10.189 10.189 0 0 0-4.315 8.617" mask="url(#h)" fill="rgba(245, 140, 142, 0.5)" stroke="none" fill-rule="evenodd"/>
  </g>
  <g transform="matrix(1 0 0 -1 60.667 50.667)">
    <mask id="j" fill="#fff" fill-rule="evenodd">
      <use xlink:href="#i"/>
    </mask>
    <path d="M5.096 1.262C7.42 1.687 9.034 3.507 8.7 5.326c-.332 1.817-2.486 2.948-4.81 2.521C1.568 7.42-.05 5.602.284 3.784.62 1.966 2.774.838 5.096 1.262" mask="url(#j)" fill="rgba(245, 140, 142, 0.4)" stroke="none" fill-rule="evenodd"/>
  </g>
  <path fill-rule="evenodd" d="M63.914 63.223c2.408 5.15.187 11.274-4.964 13.685-5.147 2.41-11.276.185-13.681-4.961-2.411-5.15-.188-11.279 4.96-13.688 5.149-2.404 11.276-.186 13.685 4.964" fill="rgba(128, 130, 191, 1)" stroke="none"/>
  <g transform="matrix(1 0 0 -1 50 78.667)">
    <mask id="l" fill="#fff" fill-rule="evenodd">
      <use xlink:href="#k"/>
    </mask>
    <path d="M6.124 20.79a9.793 9.793 0 0 0 4.71-4.724c2.302-4.92.176-10.772-4.74-13.073a9.776 9.776 0 0 0-5.636-.815 9.82 9.82 0 0 1 8.362-.017c4.918 2.303 7.04 8.156 4.741 13.073a9.816 9.816 0 0 1-7.437 5.556" mask="url(#l)" fill="rgba(222, 222, 221, 1)" stroke="none" fill-rule="evenodd"/>
  </g>
  <g transform="matrix(1 0 0 -1 46 70.667)">
    <mask id="n" fill="#fff" fill-rule="evenodd">
      <use xlink:href="#m"/>
    </mask>
    <path d="M6.393 4.092c-.8-2.129-2.8-3.352-4.466-2.724-1.668.626-2.371 2.86-1.572 4.99.8 2.133 2.797 3.354 4.468 2.726 1.666-.625 2.369-2.86 1.57-4.992" mask="url(#n)" fill="rgba(128, 130, 191, 0.5)" stroke="none" fill-rule="evenodd"/>
  </g>
</svg>
</g></svg></g></g>
<!-- /image 96435 -->

<!-- image 21644 -->
<g id="transformed-21644" data-image="21644" transform="translate(10.932695245203647, 360.68202219765567) rotate(9, 25.067304754796353, 25.317977802344327)"><g><svg version="1.1" width="50.13460950959271px" height="50.635955604688654px" viewBox="0 0 50.13460950959271 50.635955604688654"><g id="original-21644"><svg xmlns="http://www.w3.org/2000/svg" viewBox="0 0 105 106" xmlns:xlink="http://www.w3.org/1999/xlink" version="1.1" preserveAspectRatio="xMidYMid meet">
  <defs>
    <path id="a" d="M1.219 21.347h80.114V0H1.219z" fill="rgba(0, 0, 0, 1)" stroke="none"/>
    <path id="c" d="M1.163 68.587h59.282V.916H1.163z" fill="rgba(0, 0, 0, 1)" stroke="none"/>
    <path id="e" d="M1.264 11.715h13.197V.179H1.264z" fill="rgba(0, 0, 0, 1)" stroke="none"/>
    <path id="g" d="M1.205 67.724h57.97V.091H1.205z" fill="rgba(0, 0, 0, 1)" stroke="none"/>
    <path id="i" d="M.529 59.645h66.92V.779H.529z" fill="rgba(0, 0, 0, 1)" stroke="none"/>
    <path id="k" d="M.02 59.509h68.303V.983H.02z" fill="rgba(0, 0, 0, 1)" stroke="none"/>
  </defs>
  <g transform="matrix(1 0 0 -1 23 106)">
    <mask id="b" fill="#fff" fill-rule="evenodd">
      <use xlink:href="#a"/>
    </mask>
    <path d="M81.333 10.675C81.333 4.779 63.4 0 41.276 0 19.153 0 1.219 4.779 1.219 10.675c0 5.893 17.934 10.672 40.057 10.672 22.124 0 40.057-4.78 40.057-10.672" mask="url(#b)" fill="rgba(88, 89, 91, 0.2)" stroke="none" fill-rule="evenodd"/>
  </g>
  <path fill-rule="evenodd" d="M41.65 35.518c.651 6.566 4.435 10.807 9.464 14.156 3.622 2.41 8.976 1.044 10.676-1.366 2.011-1.912 2.915-4.984.535-8.55-3.921 2.955-11.03.687-12.075-4.433-1.428-8.221 5.264-13.78 11.871-16.067C80.262 13.99 94.93 32.781 91.196 50.693c-3.206 13.424-12.058 23.43-25.626 25.95a30.051 30.051 0 0 1-5.9.575c-2.389-.238-1.892.186.942.25a36.459 36.459 0 0 0 6.177-.384c12.728-1.722 22.313-8.435 28.708-18.503a38.092 38.092 0 0 0 5.197-21.904c.015.817-.606.51-1.67-2.76-4.92-17.12-23.84-29.47-41.204-22.544-9.922 3.84-17.514 12.65-16.17 24.145" fill="rgba(252, 207, 198, 1)" stroke="none"/>
  <g transform="matrix(1 0 0 -1 40.333 78)">
    <mask id="d" fill="#fff" fill-rule="evenodd">
      <use xlink:href="#c"/>
    </mask>
    <path d="M9.917 42.675c-1.428 8.22 5.264 13.78 11.87 16.068 18.142 5.268 32.809-13.524 29.076-31.435-3.206-13.425-12.058-23.43-25.626-25.95 15.27 1.295 25.746 12.97 27.734 26.626 3.245 22.273-14.008 38.092-32.148 32.824-6.607-2.287-15.718-9.821-13.268-17.8 2.352-7.667 11.34-11.87 14.437-4.765-3.921-2.956-11.03-.688-12.075 4.432" mask="url(#d)" fill="rgba(252, 207, 198, 0.5)" stroke="none" fill-rule="evenodd"/>
    <path d="M55.163 19.42a38.07 38.07 0 0 1 5.198 21.903c.014-.818-.607-.51-1.67 2.76-4.92 17.12-23.84 29.47-41.205 22.544-9.921-3.841-17.513-12.65-16.17-24.145.653-6.565 4.435-10.808 9.465-14.156 3.622-2.41 8.976-1.045 10.677 1.367 2.01 1.912 2.913 4.984.533 8.549 1.38-3.544-.453-9.153-5.9-9.372-3.912-.156-12.333 4.143-13.612 14.932-.722 6.096 3.012 16.776 16.335 21.915 17.445 6.721 34.5-8.336 39.084-22.478 1.063-3.268 1.63-14.937-2.39-21.762C49.11 11.409 39.184 2.638 26.454.917 39.185 2.638 48.77 9.35 55.163 19.419" mask="url(#d)" fill="rgba(252, 207, 198, 0.5)" stroke="none" fill-rule="evenodd"/>
  </g>
  <path fill-rule="evenodd" d="M24.338 43.555c.079.645.167 1.286.273 1.918.323 1.934.922 1.17 1.867 3.511C34.275 68.071 61.9 76.14 76.643 59.734c5.495-6.818 7.796-16.989 2.679-24.895-3.945-5.831-11.224-9.29-16.656-4.924-2.88 1.946-3.44 7.15.055 9.337 1.922-.08 7.188.305 7.997 6.69 1.021 8.074-6.787 14.698-16.583 13.631-9.794-1.07-17.39-8.218-20.433-17.302-3.397-11.135-.233-22.924 7.756-31.315A32.597 32.597 0 0 1 65.653 1.18c.78.02.042-.095-.802-.17C55.5.46 46.031 3.316 38.23 9.238 27.783 17.565 23.362 30.55 24.338 43.555" fill="rgba(252, 207, 198, 1)" stroke="none"/>
  <path fill-rule="evenodd" d="M39.494 64.06c-1.436-1.35-2.935-2.085-3.35-1.648L.407 100.505c-.41.438.427 1.886 1.863 3.235 1.437 1.35 2.936 2.09 3.348 1.653L41.355 67.3c.412-.437-.42-1.885-1.86-3.24" fill="rgba(244, 244, 245, 1)" stroke="none"/>
  <g transform="matrix(1 0 0 -1 27 74)">
    <mask id="f" fill="#fff" fill-rule="evenodd">
      <use xlink:href="#e"/>
    </mask>
    <path d="M12.494 9.94c-1.436 1.35-2.935 2.085-3.35 1.648l-7.88-8.397A11.015 11.015 0 0 1 8.238.179L14.355 6.7c.412.437-.42 1.885-1.86 3.24" mask="url(#f)" fill="rgba(115, 115, 115, 0.2)" stroke="none" fill-rule="evenodd"/>
  </g>
  <g transform="matrix(1 0 0 -1 23 68.667)">
    <mask id="h" fill="#fff" fill-rule="evenodd">
      <use xlink:href="#g"/>
    </mask>
    <path d="M53.643 8.932c5.494 6.818 7.797 16.99 2.68 24.896-3.946 5.83-11.224 9.29-16.656 4.924-2.882-1.948-3.442-7.15.054-9.338-1.945 2.56.45 5.75 2.836 6.882 2.019.352 8.35 2.712 13.242-7.73 1.64-3.498 1.516-10.61-3.98-17.428C37.078-5.265 13.384 2.687 5.585 21.774c-.944 2.34-1.684 5.893-1.759 6.538-.977 13.006 6.084 23.26 12.67 29.93 5 5.065 16.005 9.966 25.356 9.414-9.351.552-18.82-2.305-26.623-8.226C4.783 51.102.36 38.118 1.338 25.112c.078-.646.166-1.286.274-1.92.323-1.932.921-1.17 1.867-3.51C11.276.597 38.899-7.473 53.643 8.933" mask="url(#h)" fill="rgba(252, 207, 198, 0.5)" stroke="none" fill-rule="evenodd"/>
    <path d="M47.718 22.724c1.021-8.073-6.787-14.697-16.584-13.63-9.793 1.07-17.388 8.218-20.432 17.302-3.399 11.135-.233 22.924 7.756 31.315a32.597 32.597 0 0 0 24.195 9.776c-8.802.237-18.496-2.276-25.462-8.588C6.44 49.15 4.777 36.757 7.674 25.479 10.458 14.636 22.284 5.59 32.121 5.027c15.814-.904 21.472 10.825 20.957 18.946-.45 7.131-9.125 12.008-13.357 5.442 1.922.08 7.188-.306 7.997-6.691" mask="url(#h)" fill="rgba(252, 207, 198, 0.5)" stroke="none" fill-rule="evenodd"/>
  </g>
  <path fill-rule="evenodd" d="M24.885 46.625c4.073 18.183 21.382 33.836 40.688 30.019 13.57-2.522 22.421-12.527 25.624-25.954 3.734-17.912-10.932-36.704-29.075-31.434-6.607 2.288-13.297 7.845-11.87 16.066 1.094 5.35 8.813 7.592 12.587 4.003-3.629-2.137-3.086-7.443-.169-9.413 5.43-4.366 12.71-.907 16.652 4.926 5.12 7.904 2.815 18.08-2.68 24.896-14.739 16.404-42.364 8.336-50.161-10.752-.944-2.34-1.776-3.157-1.596-2.357" fill="rgba(245, 140, 142, 1)" stroke="none"/>
  <g transform="matrix(1 0 0 -1 24.333 78)">
    <mask id="j" fill="#fff" fill-rule="evenodd">
      <use xlink:href="#i"/>
    </mask>
    <path d="M38.337 48.089c5.43 4.364 12.709.906 16.652-4.927 5.12-7.904 2.816-18.079-2.68-24.896C37.569 1.862 9.945 9.93 2.147 29.018 1.281 31.17.51 32.028.531 31.53c.135-.281.583-1.346 1.22-2.932C10.114 7.974 38.765-1.518 55.74 16.575c5.494 6.819 10.426 18.147 2.023 29.542-4.176 5.666-14.947 11.709-21.932 3.532-3.456-4.05-2.421-11.363 2.676-10.975-3.63 2.139-3.087 7.443-.17 9.415" mask="url(#j)" fill="rgba(245, 140, 142, 0.5)" stroke="none" fill-rule="evenodd"/>
    <path d="M66.864 27.31c3.735 17.912-10.932 36.703-29.076 31.435-6.607-2.29-13.296-7.847-11.87-16.068 1.094-5.348 8.813-7.591 12.587-4.003-3.774-3.588-9.581 2.232-9.393 6.557.152 3.382 1.833 8.882 8.333 11.456 14.74 5.836 31.86-9.46 28.127-27.374-3.204-13.42-13.281-23.62-23.856-25.42C22.315.594 6.443 13.999.552 31.376 4.624 13.193 21.935-2.46 41.239 1.357c13.57 2.52 22.422 12.526 25.625 25.953" mask="url(#j)" fill="rgba(245, 140, 142, 0.5)" stroke="none" fill-rule="evenodd"/>
  </g>
  <path fill-rule="evenodd" d="M100.697 36.661c-.046-1.914-.472-3.948-.872-5.776-1.934-8.864-7.71-16.642-14.508-22.497C72.08-2.182 53.225-1.027 41.46 10.953c-7.99 8.391-11.153 20.18-7.755 31.318 3.044 9.078 10.639 16.232 20.434 17.3 9.796 1.066 17.604-5.555 16.58-13.63-.994-7.842-8.7-6.634-8.7-6.634 2.772 3.756 1.872 7.005-.228 8.997-1.696 2.412-7.054 3.776-10.675 1.365-5.028-3.346-8.81-7.589-9.461-14.156-1.346-11.492 6.245-20.305 16.169-24.14 17.363-6.928 36.283 5.422 41.201 22.54 1.07 3.29 1.694 3.584 1.672 2.748" fill="rgba(245, 140, 142, 1)" stroke="none"/>
  <g transform="matrix(1 0 0 -1 32.333 60.667)">
    <mask id="l" fill="#fff" fill-rule="evenodd">
      <use xlink:href="#k"/>
    </mask>
    <path d="M38.386 14.727c-.81 6.39-6.08 6.77-8 6.69 1.775.059 5.17-.86 5.97-7.164C37.377 6.177 26.995.907 19.67 3.896c-7.428 3.028-12.879 7.953-15.92 17.03-3.4 11.137-.08 18.02 7.91 26.41 11.764 11.979 27.3 14.67 40.532 4.101 6.798-5.858 13.366-12.792 15.3-21.656-1.934 8.864-7.708 16.643-14.508 22.498-13.236 10.57-32.092 9.414-43.856-2.566-7.99-8.39-11.154-20.18-7.756-31.317 3.044-9.079 10.64-16.232 20.434-17.3C31.6.029 39.41 6.65 38.386 14.726" mask="url(#l)" fill="rgba(245, 140, 142, 0.5)" stroke="none" fill-rule="evenodd"/>
    <path d="M68.322 23.695c-.13-.153-.108 1.232-.838 3.904-5.93 21.722-26.74 30.604-44.107 23.679-9.919-3.84-17.581-10.979-17.035-22.536.419-8.844 5.295-16.724 10.459-19.853 5.095-3.09 11.844-3.306 15.19 1.098 4.165 5.479.534 11.279-2.305 11.372 2.772-3.754 1.87-7.005-.228-8.997-1.697-2.412-7.053-3.776-10.674-1.364-5.03 3.345-8.811 7.588-9.463 14.156-1.345 11.492 6.247 20.304 16.17 24.14 17.362 6.928 36.282-5.421 41.2-22.541.894-2.746 1.475-3.402 1.631-3.058" mask="url(#l)" fill="rgba(245, 140, 142, 0.5)" stroke="none" fill-rule="evenodd"/>
  </g>
</svg>
</g></svg></g></g>
<!-- /image 21644 -->

<!-- image 24640 -->
<g id="transformed-24640" data-image="24640" transform="translate(204.56659032878542, 53.82257200769393) rotate(27, 36.43340967121458, 45.17742799230607)"><g><svg version="1.1" width="72.86681934242915px" height="90.35485598461214px" viewBox="0 0 72.86681934242915 90.35485598461214"><g id="original-24640"><svg xmlns="http://www.w3.org/2000/svg" viewBox="0 0 92 114" xmlns:xlink="http://www.w3.org/1999/xlink" version="1.1" preserveAspectRatio="xMidYMid meet">
  <defs>
    <path id="a" d="M.997 21.347h80.115V0H.997z" fill="rgba(0, 0, 0, 1)" stroke="none"/>
    <path id="c" d="M.393 21.468h91.943V.897H.393z" fill="rgba(0, 0, 0, 1)" stroke="none"/>
    <path id="e" d="M.829 21.823h13V.156h-13z" fill="rgba(0, 0, 0, 1)" stroke="none"/>
    <path id="g" d="M.715 21.057h15.684V.856H.715z" fill="rgba(0, 0, 0, 1)" stroke="none"/>
    <path id="i" d="M.668 23.963h8.575V.617H.668z" fill="rgba(0, 0, 0, 1)" stroke="none"/>
    <path id="k" d="M1.088 25.055h6.801v-23.8H1.088z" fill="rgba(0, 0, 0, 1)" stroke="none"/>
    <path id="m" d="M.572 25.055h6.795v-23.8H.572z" fill="rgba(0, 0, 0, 1)" stroke="none"/>
    <path id="o" d="M.287 24.536h7.846V.991H.287z" fill="rgba(0, 0, 0, 1)" stroke="none"/>
    <path id="q" d="M.699 18.04h71.31V0H.699z" fill="rgba(0, 0, 0, 1)" stroke="none"/>
    <path id="s" d="M.871 22.093h12.998V.436H.871z" fill="rgba(0, 0, 0, 1)" stroke="none"/>
    <path id="u" d="M.351 25.039h7.05V1.299H.351z" fill="rgba(0, 0, 0, 1)" stroke="none"/>
    <path id="w" d="M1.325 21.419h15.428V1.059H1.325z" fill="rgba(0, 0, 0, 1)" stroke="none"/>
    <path id="y" d="M1.072 22.592h12.74V.815H1.072z" fill="rgba(0, 0, 0, 1)" stroke="none"/>
    <path id="A" d="M.561 15.361h3.538V.66H.561z" fill="rgba(0, 0, 0, 1)" stroke="none"/>
    <path id="C" d="M.744 13.663h53.721V.661H.744z" fill="rgba(0, 0, 0, 1)" stroke="none"/>
    <path id="E" d="M.141 22.889h16.904V.344H.141z" fill="rgba(0, 0, 0, 1)" stroke="none"/>
    <path id="G" d="M.103 23.193h14.929V.659H.103z" fill="rgba(0, 0, 0, 1)" stroke="none"/>
    <path id="I" d="M.156 20.06h17.559V.068H.156z" fill="rgba(0, 0, 0, 1)" stroke="none"/>
    <path id="K" d="M.729 24.315h11.554V.993H.729z" fill="rgba(0, 0, 0, 1)" stroke="none"/>
    <path id="M" d="M.781 8.328h31.282V.136H.781z" fill="rgba(0, 0, 0, 1)" stroke="none"/>
  </defs>
  <g transform="matrix(1 0 0 -1 5 114)">
    <mask id="b" fill="#fff" fill-rule="evenodd">
      <use xlink:href="#a"/>
    </mask>
    <path d="M81.112 10.675C81.112 4.779 63.179 0 41.055 0 18.932 0 .997 4.779.997 10.675c0 5.893 17.935 10.672 40.058 10.672 22.124 0 40.057-4.78 40.057-10.672" mask="url(#b)" fill="rgba(88, 89, 91, 0.2)" stroke="none" fill-rule="evenodd"/>
  </g>
  <path fill-rule="evenodd" d="M62.767 94.32c0 13.203-7.492 13.074-16.736 13.074-9.239 0-16.732.129-16.732-13.074 0-13.202 7.493-36.234 16.732-36.234 9.244 0 16.736 23.032 16.736 36.234" fill="rgba(180, 121, 106, 1)" stroke="none"/>
  <path fill-rule="evenodd" d="M22.596 76.42C15.791 89.448 11.02 89.879 6.123 88.527 1.208 87.17-4 83.045 4.843 71.522 15.82 57.23 25.86 40 30.764 41.35c4.9 1.353-1.36 22.043-8.168 35.07" fill="rgba(76, 182, 175, 1)" stroke="none"/>
  <path fill-rule="evenodd" d="M49.092 77.501c-.55 14.359-4.749 16.418-9.86 16.876-5.109.46-11.728-1.532-8.629-15.205C34.431 62.196 36.12 42.84 41.22 42.384c5.11-.467 8.42 20.757 7.872 35.117" fill="rgba(76, 182, 175, 1)" stroke="none"/>
  <path fill-rule="evenodd" d="M23.202 55.939c4.047-13.902 8.656-15.099 13.75-14.558 5.093.54 11.07 3.762 4.717 16.512C33.77 73.725 27.4 92.287 22.303 91.748c-5.097-.537-3.144-21.895.899-35.81" fill="rgba(76, 182, 175, 1)" stroke="none"/>
  <path fill-rule="evenodd" d="M72.738 78.91c6.195 10.847 10.252 11.083 14.358 9.805 4.106-1.274 8.38-4.909.509-14.426-9.779-11.802-18.85-26.12-22.955-24.848-4.106 1.278 1.89 18.626 8.088 29.47" fill="rgba(76, 182, 175, 1)" stroke="none"/>
  <path fill-rule="evenodd" d="M55.207 56.486c-4.041-13.903-8.644-15.09-13.75-14.556-5.097.538-11.063 3.764-4.707 16.52 7.894 15.821 14.257 34.382 19.356 33.844 5.101-.538 3.148-21.89-.899-35.808" fill="rgba(76, 182, 175, 1)" stroke="none"/>
  <path fill-rule="evenodd" d="M58.355 79.478c2.347 11.263 5.932 12.44 10.016 12.265 4.088-.178 9.04-2.442 4.787-12.896-5.284-12.97-9.177-28.052-13.267-27.868-4.088.168-3.874 17.244-1.536 28.499" fill="rgba(76, 182, 175, 1)" stroke="none"/>
  <g transform="matrix(1 0 0 -1 -.333 95.333)">
    <mask id="d" fill="#fff" fill-rule="evenodd">
      <use xlink:href="#c"/>
    </mask>
    <path d="M89.405 19.14c.393-3.397-2.117-5.053-4.56-5.823-3.607-1.115-7.175-.984-12.377 7.384 2.685-8.2-1.596-10.068-5.164-10.218-3.412-.144-6.456.723-8.631 8.384-.036-5.082-.875-8.685-2.867-8.9-2.122-.224-4.48 3.086-7.097 8.138-1.307-8.316-4.716-9.732-8.717-10.088-4.312-.391-9.764 1.085-8.688 10.75-2.648-5.134-5.03-8.516-7.168-8.286-2.015.209-2.856 3.888-2.875 9.052-4.779-6.976-8.503-7.083-12.299-6.034-3.214.887-6.573 3.052-5.457 7.968-6.432-9.74-1.61-13.397 2.95-14.66 4.051-1.118 8.023-1.008 13.126 6.436.019-5.505.908-9.429 3.056-9.658 2.284-.244 4.83 3.362 7.652 8.838C29.146 2.123 34.965.542 39.565.955c4.27.39 7.901 1.896 9.308 10.768 2.784-5.389 5.305-8.921 7.565-8.684 2.13.223 3.03 4.074 3.066 9.496 2.313-8.166 5.562-9.102 9.2-8.945 3.816.167 8.378 2.144 5.516 10.903 5.562-8.938 9.365-9.068 13.209-7.876 3.817 1.186 7.776 4.417 1.976 12.522" mask="url(#d)" fill="rgba(50, 136, 130, 0.5)" stroke="none" fill-rule="evenodd"/>
  </g>
  <g transform="matrix(1 0 0 -1 69 76.667)">
    <mask id="f" fill="#fff" fill-rule="evenodd">
      <use xlink:href="#e"/>
    </mask>
    <path d="M8.814 11.676C12.31 5.712 14.478.568 13.655.178c-.825-.384-4.322 4.146-7.822 10.118C2.345 16.26.18 21.412 1.005 21.8c.817.38 4.32-4.15 7.809-10.125" mask="url(#f)" fill="rgba(50, 136, 130, 0.5)" stroke="none" fill-rule="evenodd"/>
  </g>
  <g transform="matrix(1 0 0 -1 6.333 76.667)">
    <mask id="h" fill="#fff" fill-rule="evenodd">
      <use xlink:href="#g"/>
    </mask>
    <path d="M7.175 11.796C2.904 6.242.072 1.358.84.892c.772-.468 4.847 3.664 9.105 9.22 4.262 5.558 7.094 10.446 6.328 10.91-.762.464-4.848-3.664-9.098-9.226" mask="url(#h)" fill="rgba(50, 136, 130, 0.5)" stroke="none" fill-rule="evenodd"/>
  </g>
  <g transform="matrix(1 0 0 -1 23.667 78)">
    <mask id="j" fill="#fff" fill-rule="evenodd">
      <use xlink:href="#i"/>
    </mask>
    <path d="M3.349 12.727C1.154 6.283.093.865.986.625c.884-.24 3.388 4.792 5.582 11.23 2.186 6.442 3.248 11.854 2.364 12.1-.892.234-3.388-4.794-5.583-11.228" mask="url(#j)" fill="rgba(50, 136, 130, 0.3)" stroke="none" fill-rule="evenodd"/>
  </g>
  <g transform="matrix(1 0 0 -1 35.667 80.667)">
    <mask id="l" fill="#fff" fill-rule="evenodd">
      <use xlink:href="#k"/>
    </mask>
    <path d="M2.853 13.48C1.2 6.912.605 1.44 1.513 1.26c.897-.18 2.973 4.998 4.618 11.566 1.638 6.572 2.24 12.043 1.34 12.225-.913.175-2.977-5.002-4.618-11.57" mask="url(#l)" fill="rgba(50, 136, 130, 0.3)" stroke="none" fill-rule="evenodd"/>
  </g>
  <g transform="matrix(1 0 0 -1 47.667 80.667)">
    <mask id="n" fill="#fff" fill-rule="evenodd">
      <use xlink:href="#m"/>
    </mask>
    <path d="M5.61 13.48C7.25 6.912 7.849 1.44 6.95 1.26c-.907-.18-2.973 4.998-4.623 11.566C.69 19.398.089 24.869.992 25.05c.908.175 2.976-5.002 4.619-11.57" mask="url(#n)" fill="rgba(50, 136, 130, 0.3)" stroke="none" fill-rule="evenodd"/>
  </g>
  <g transform="matrix(1 0 0 -1 58.333 79.333)">
    <mask id="p" fill="#fff" fill-rule="evenodd">
      <use xlink:href="#o"/>
    </mask>
    <path d="M5.83 13.158C7.802 6.655 8.675 1.214 7.782.998 6.889.788 4.559 5.876 2.587 12.37.619 18.867-.261 24.308.64 24.53c.894.213 3.215-4.888 5.188-11.372" mask="url(#p)" fill="rgba(50, 136, 130, 0.3)" stroke="none" fill-rule="evenodd"/>
  </g>
  <path fill-rule="evenodd" d="M32.238 51.753c-6.805 13.024-11.581 13.456-16.484 12.102-4.906-1.356-10.121-5.484-1.27-17.002 10.978-14.292 21.01-31.519 25.918-30.17 4.903 1.351-1.358 22.038-8.164 35.07" fill="rgba(76, 182, 175, 1)" stroke="none"/>
  <path fill-rule="evenodd" d="M54.879 51.318c.133 14.361-3.972 16.582-9.053 17.234-5.08.652-11.787-1.084-9.35-14.866 3.028-17.11 3.787-36.507 8.867-37.155 5.077-.659 9.4 20.425 9.536 34.787" fill="rgba(76, 182, 175, 1)" stroke="none"/>
  <path fill-rule="evenodd" d="M29.928 31.279C33.97 17.36 38.58 16.173 43.682 16.704c5.093.547 11.064 3.773 4.706 16.52-7.892 15.823-14.257 34.388-19.354 33.847-5.098-.536-3.152-21.882.894-35.792" fill="rgba(76, 182, 175, 1)" stroke="none"/>
  <path fill-rule="evenodd" d="M58.47 51.753c6.805 13.024 11.576 13.456 16.484 12.102 4.901-1.356 10.12-5.484 1.273-17.002-10.986-14.292-21.02-31.519-25.921-30.17-4.908 1.351 1.361 22.038 8.164 35.07" fill="rgba(76, 182, 175, 1)" stroke="none"/>
  <path fill-rule="evenodd" d="M60.277 30.827C56.236 16.92 51.632 15.723 46.53 16.265c-5.1.538-11.065 3.76-4.713 16.511 7.893 15.836 14.256 34.39 19.36 33.856 5.09-.543 3.153-21.899-.899-35.805" fill="rgba(76, 182, 175, 1)" stroke="none"/>
  <g transform="matrix(1 0 0 -1 9 68.667)">
    <mask id="r" fill="#fff" fill-rule="evenodd">
      <use xlink:href="#q"/>
    </mask>
    <path d="M69.79 18.04c.495-4.248-2.636-6.19-5.638-7.018-3.228-.895-6.39-.95-10.195 3.296-.312-3.458-1.167-5.735-2.74-5.907-1.945-.201-4.072 2.532-6.413 6.839-1.183-6.812-4.316-8.167-8.007-8.635-3.98-.513-9.019.544-9.252 8.423-2.385-4.427-4.557-7.247-6.52-7.039-1.557.165-2.423 2.413-2.733 5.823-3.602-3.746-6.644-3.654-9.732-2.8-3.002.828-6.136 2.77-5.638 7.018C-2.134 9.364 2.43 6.007 6.754 4.811c3.298-.905 6.532-1.01 10.363 2.98.335-3.632 1.256-6.025 2.917-6.195 2.09-.224 4.4 2.775 6.944 7.491C27.221.702 32.59-.428 36.825.115c3.932.505 7.265 1.95 8.52 9.2 2.5-4.588 4.77-7.495 6.83-7.28 1.673.179 2.597 2.61 2.918 6.287 4.05-4.523 7.424-4.45 10.861-3.51 4.32 1.195 8.888 4.552 3.836 13.228" mask="url(#r)" fill="rgba(50, 136, 130, 0.5)" stroke="none" fill-rule="evenodd"/>
  </g>
  <g transform="matrix(1 0 0 -1 59.667 52.667)">
    <mask id="t" fill="#fff" fill-rule="evenodd">
      <use xlink:href="#s"/>
    </mask>
    <path d="M8.869 11.958C12.355 5.986 14.519.84 13.694.458 12.877.082 9.374 4.6 5.887 10.577c-3.5 5.965-5.666 11.119-4.841 11.495.825.38 4.328-4.148 7.823-10.114" mask="url(#t)" fill="rgba(50, 136, 130, 0.5)" stroke="none" fill-rule="evenodd"/>
  </g>
  <g transform="matrix(1 0 0 -1 51.667 54)">
    <mask id="v" fill="#fff" fill-rule="evenodd">
      <use xlink:href="#u"/>
    </mask>
    <path d="M5.512 13.508C7.233 6.953 7.905 1.485 6.996 1.304c-.902-.19-3.03 4.97-4.755 11.521C.514 19.38-.152 24.843.76 25.035c.897.185 3.025-4.98 4.752-11.527" mask="url(#v)" fill="rgba(50, 136, 130, 0.3)" stroke="none" fill-rule="evenodd"/>
  </g>
  <g transform="matrix(1 0 0 -1 14.333 54)">
    <mask id="x" fill="#fff" fill-rule="evenodd">
      <use xlink:href="#w"/>
    </mask>
    <path d="M7.635 12.066C3.45 6.466.682 1.548 1.455 1.094c.775-.465 4.79 3.714 8.98 9.315 4.191 5.6 6.964 10.516 6.187 10.976-.772.459-4.799-3.72-8.987-9.319" mask="url(#x)" fill="rgba(50, 136, 130, 0.5)" stroke="none" fill-rule="evenodd"/>
  </g>
  <g transform="matrix(1 0 0 -1 26.333 54)">
    <mask id="z" fill="#fff" fill-rule="evenodd">
      <use xlink:href="#y"/>
    </mask>
    <path d="M5.939 12.381C2.52 6.381.423 1.204 1.253.836c.83-.373 4.271 4.19 7.686 10.195 3.417 5.997 5.522 11.165 4.693 11.541-.828.373-4.27-4.187-7.693-10.19" mask="url(#z)" fill="rgba(50, 136, 130, 0.3)" stroke="none" fill-rule="evenodd"/>
  </g>
  <g transform="matrix(1 0 0 -1 42.333 56.667)">
    <mask id="B" fill="#fff" fill-rule="evenodd">
      <use xlink:href="#A"/>
    </mask>
    <path d="M3.815 15.362c-.356-.775-.796-1.259-1.392-1.35-.628-.093-1.247.193-1.856.78a65.374 65.374 0 0 1 .039-3.24C.812 5.52 1.764.646 2.72.662c.95.009 1.55 4.904 1.335 10.933-.045 1.333-.13 2.6-.24 3.768" mask="url(#B)" fill="rgba(50, 136, 130, 0.3)" stroke="none" fill-rule="evenodd"/>
  </g>
  <path fill-rule="evenodd" d="M45.099 32.44c-4.584 10.801-10.227 10.984-16.51 9.65-6.295-1.334-17.026-8.418-6.267-14.482C33.086 21.555 38.908 1.643 45.198 2.98c6.285 1.33 4.484 18.656-.1 29.46" fill="rgba(76, 182, 175, 1)" stroke="none"/>
  <path fill-rule="evenodd" d="M44.11 32.44c4.585 10.801 10.217 10.984 16.511 9.65 6.29-1.334 17.028-8.418 6.258-14.482C56.124 21.555 50.3 1.643 44.008 2.98c-6.281 1.33-4.481 18.656.101 29.46" fill="rgba(76, 182, 175, 1)" stroke="none"/>
  <g transform="matrix(1 0 0 -1 17 43.333)">
    <mask id="D" fill="#fff" fill-rule="evenodd">
      <use xlink:href="#C"/>
    </mask>
    <path d="M52.72 13.663c-1.419-3.214-6.385-5.852-9.907-6.598-4.77-1.01-9.142-1.097-12.916 4.122-.382-2.639-.954-4.474-2.154-4.656-1.211-.19-2.415 1.14-3.503 3.325-3.527-3.868-7.53-3.701-11.847-2.79-3.512.745-8.489 3.383-9.904 6.597-5.58-5.514 3.518-11.236 9.099-12.419 4.553-.97 8.759-1.132 12.47 2.939C25.204 1.88 26.48.485 27.757.68c1.247.195 1.865 2.123 2.257 4.903C34 .087 38.603.173 43.621 1.244 49.21 2.427 58.3 8.15 52.72 13.663" mask="url(#D)" fill="rgba(50, 136, 130, 0.5)" stroke="none" fill-rule="evenodd"/>
  </g>
  <g transform="matrix(1 0 0 -1 45 27.333)">
    <mask id="F" fill="#fff" fill-rule="evenodd">
      <use xlink:href="#E"/>
    </mask>
    <path d="M8.129 11.863C11.626 5.891 17.799.747 16.97.366c-.817-.384-8.325 4.14-11.817 10.119C1.663 16.447-.504 22.489.314 22.87c.824.381 4.326-5.039 7.815-11.007" mask="url(#F)" fill="rgba(50, 136, 130, 0.5)" stroke="none" fill-rule="evenodd"/>
  </g>
  <g transform="matrix(1 0 0 -1 43.667 32.667)">
    <mask id="H" fill="#fff" fill-rule="evenodd">
      <use xlink:href="#G"/>
    </mask>
    <path d="M6.918 11.552C9.741 5.302 15.811.98 14.948.677c-.852-.316-8.332 3.513-11.15 9.756C.978 16.683-.515 22.877.346 23.18c.865.315 3.75-5.387 6.572-11.628" mask="url(#H)" fill="rgba(50, 136, 130, 0.3)" stroke="none" fill-rule="evenodd"/>
  </g>
  <g transform="matrix(1 0 0 -1 22.333 30)">
    <mask id="J" fill="#fff" fill-rule="evenodd">
      <use xlink:href="#I"/>
    </mask>
    <path d="M12.496 7.436c4.363 5.495 5.781 12.121 5.025 12.596-.753.477-3.41-5.375-7.769-10.873C5.385 3.669-.536.603.222.129c.753-.474 7.913 1.81 12.274 7.307" mask="url(#J)" fill="rgba(50, 136, 130, 0.5)" stroke="none" fill-rule="evenodd"/>
  </g>
  <g transform="matrix(1 0 0 -1 30.333 34)">
    <mask id="L" fill="#fff" fill-rule="evenodd">
      <use xlink:href="#K"/>
    </mask>
    <path d="M10.465 10.971c2.552 6.336 1.93 13.056 1.05 13.335-.868.283-1.664-5.993-4.213-12.328C4.747 5.65-.048 1.285.837 1.008c.87-.278 7.074 3.627 9.628 9.963" mask="url(#L)" fill="rgba(50, 136, 130, 0.3)" stroke="none" fill-rule="evenodd"/>
  </g>
  <path fill-rule="evenodd" d="M60.869 18.602c-1.4-.596-2.303-2.112-3.224-3.168-1.255-1.44-2.706-2.574-3.858-4.11-2.314-3.12-4.517-6.534-6.526-9.804-2.57-4.173-8.01 5.492-10.016 7.61a35.968 35.968 0 0 0-3.251 4.009c-1.203 1.712-2.197 4.004-4.227 5.053-2.544 1.328-.244 4.854 2.314 3.519 1.685-.873 2.853-2.164 3.877-3.563-.183.46-.36.927-.52 1.399-.565 1.64 1.195 2.727 2.816 2.515 3.152-.426 2.921-3.256 4.052-5.242.261-.461.57-.884.883-1.301-.343 1.152-.598 2.297-.04 3.487.766 1.622 2.996 2.06 4.188.482.63-.83.893-1.77 1.037-2.733.757.865 1.667 1.62 2.468 2.464 1.267 1.35 3.115.501 3.652-.807 1.413 1.438 2.033 2.847 4.063 3.714 2.656 1.124 4.978-2.388 2.312-3.524" fill="rgba(247, 248, 248, 1)" stroke="none"/>
  <g transform="matrix(1 0 0 -1 29 22)">
    <mask id="N" fill="#fff" fill-rule="evenodd">
      <use xlink:href="#M"/>
    </mask>
    <path d="M7.125 4.646c.153.433.323.861.496 1.29-.955-1.29-2.056-2.463-3.635-3.273-1.198-.606-2.338-.108-2.877.7C-.001 1.945 1.905-.35 3.986.71c1.35.686 2.34 1.657 3.206 2.73-.18.342-.228.752-.067 1.207" mask="url(#N)" fill="rgba(149, 168, 173, 0.2)" stroke="none" fill-rule="evenodd"/>
    <path d="M14.39 8.328a10.65 10.65 0 0 1-.822-1.195c-1.057-1.809-.841-4.396-3.803-4.782-.95-.122-1.948.224-2.438.86-.07-.17-.135-.344-.202-.524C6.6 1.197 8.248.197 9.765.397c2.962.382 2.746 2.97 3.803 4.783.16.273.335.532.521.787-.133.797.06 1.576.302 2.361" mask="url(#N)" fill="rgba(149, 168, 173, 0.2)" stroke="none" fill-rule="evenodd"/>
    <path d="M28.788 2.293c-1.899.79-2.482 2.075-3.806 3.388-.5-1.195-2.236-1.967-3.424-.733-.742.768-1.6 1.46-2.308 2.256-.14-.89-.378-1.74-.973-2.5-1.117-1.442-3.205-1.047-3.921.444-.079.148-.13.3-.17.45-.184-.797-.23-1.593.17-2.41.716-1.48 2.804-1.884 3.921-.44.595.76.833 1.613.973 2.494.707-.784 1.566-1.477 2.308-2.258 1.188-1.228 2.923-.452 3.424.742 1.324-1.314 1.907-2.601 3.806-3.39 2.17-.9 4.106 1.429 2.91 2.73a2.411 2.411 0 0 0-2.91-.773" mask="url(#N)" fill="rgba(149, 168, 173, 0.2)" stroke="none" fill-rule="evenodd"/>
  </g>
</svg>
</g></svg></g></g>
<!-- /image 24640 -->
</defs><rect x="0" y="0" width="300" height="400" fill="rgba(218, 164, 255, 1)"></rect><use xlink:href="#transformed-78956" transform="translate(-300, -400)"></use><use xlink:href="#transformed-78956" transform="translate(0, -400)"></use><use xlink:href="#transformed-78956" transform="translate(300, -400)"></use><use xlink:href="#transformed-78956" transform="translate(-300, 0)"></use><use xlink:href="#transformed-78956" transform="translate(0, 0)"></use><use xlink:href="#transformed-78956" transform="translate(300, 0)"></use><use xlink:href="#transformed-78956" transform="translate(-300, 400)"></use><use xlink:href="#transformed-78956" transform="translate(0, 400)"></use><use xlink:href="#transformed-78956" transform="translate(300, 400)"></use><use xlink:href="#transformed-71977" transform="translate(-300, -400)"></use><use xlink:href="#transformed-71977" transform="translate(0, -400)"></use><use xlink:href="#transformed-71977" transform="translate(300, -400)"></use><use xlink:href="#transformed-71977" transform="translate(-300, 0)"></use><use xlink:href="#transformed-71977" transform="translate(0, 0)"></use><use xlink:href="#transformed-71977" transform="translate(300, 0)"></use><use xlink:href="#transformed-71977" transform="translate(-300, 400)"></use><use xlink:href="#transformed-71977" transform="translate(0, 400)"></use><use xlink:href="#transformed-71977" transform="translate(300, 400)"></use><use xlink:href="#transformed-90686" transform="translate(-300, -400)"></use><use xlink:href="#transformed-90686" transform="translate(0, -400)"></use><use xlink:href="#transformed-90686" transform="translate(300, -400)"></use><use xlink:href="#transformed-90686" transform="translate(-300, 0)"></use><use xlink:href="#transformed-90686" transform="translate(0, 0)"></use><use xlink:href="#transformed-90686" transform="translate(300, 0)"></use><use xlink:href="#transformed-90686" transform="translate(-300, 400)"></use><use xlink:href="#transformed-90686" transform="translate(0, 400)"></use><use xlink:href="#transformed-90686" transform="translate(300, 400)"></use><use xlink:href="#transformed-96435" transform="translate(-300, -400)"></use><use xlink:href="#transformed-96435" transform="translate(0, -400)"></use><use xlink:href="#transformed-96435" transform="translate(300, -400)"></use><use xlink:href="#transformed-96435" transform="translate(-300, 0)"></use><use xlink:href="#transformed-96435" transform="translate(0, 0)"></use><use xlink:href="#transformed-96435" transform="translate(300, 0)"></use><use xlink:href="#transformed-96435" transform="translate(-300, 400)"></use><use xlink:href="#transformed-96435" transform="translate(0, 400)"></use><use xlink:href="#transformed-96435" transform="translate(300, 400)"></use><use xlink:href="#transformed-21644" transform="translate(-300, -400)"></use><use xlink:href="#transformed-21644" transform="translate(0, -400)"></use><use xlink:href="#transformed-21644" transform="translate(300, -400)"></use><use xlink:href="#transformed-21644" transform="translate(-300, 0)"></use><use xlink:href="#transformed-21644" transform="translate(0, 0)"></use><use xlink:href="#transformed-21644" transform="translate(300, 0)"></use><use xlink:href="#transformed-21644" transform="translate(-300, 400)"></use><use xlink:href="#transformed-21644" transform="translate(0, 400)"></use><use xlink:href="#transformed-21644" transform="translate(300, 400)"></use><use xlink:href="#transformed-24640" transform="translate(-300, -400)"></use><use xlink:href="#transformed-24640" transform="translate(0, -400)"></use><use xlink:href="#transformed-24640" transform="translate(300, -400)"></use><use xlink:href="#transformed-24640" transform="translate(-300, 0)"></use><use xlink:href="#transformed-24640" transform="translate(0, 0)"></use><use xlink:href="#transformed-24640" transform="translate(300, 0)"></use><use xlink:href="#transformed-24640" transform="translate(-300, 400)"></use><use xlink:href="#transformed-24640" transform="translate(0, 400)"></use><use xlink:href="#transformed-24640" transform="translate(300, 400)"></use></svg>