<?xml version="1.0" standalone="no"?><!DOCTYPE svg PUBLIC "-//W3C//DTD SVG 1.1//EN" "http://www.w3.org/Graphics/SVG/1.1/DTD/svg11.dtd"><svg t="1665994587030" class="icon" viewBox="0 0 1024 1024" version="1.1" xmlns="http://www.w3.org/2000/svg" p-id="1525" xmlns:xlink="http://www.w3.org/1999/xlink" width="32" height="32"><path d="M757.76 664.137143c4.388571 19.017143-11.702857 38.034286-35.108571 43.885714-23.405714 4.388571-45.348571-7.314286-48.274286-26.331428-4.388571-19.017143 11.702857-38.034286 35.108571-43.885715 21.942857-4.388571 43.885714 7.314286 48.274286 26.331429zM329.142857 779.702857c-4.388571 19.017143-27.794286 29.257143-49.737143 23.405714s-36.571429-26.331429-32.182857-45.348571c4.388571-19.017143 27.794286-29.257143 49.737143-23.405714s36.571429 26.331429 32.182857 45.348571z" fill="#ffffff" p-id="1526"></path><path d="M399.36 491.52l-17.554286-4.388571c-21.942857-4.388571-36.571429-23.405714-35.108571-45.348572 0-10.24 0-19.017143 1.462857-23.405714C364.251429 273.554286 488.594286 160.914286 637.805714 160.914286h241.371429v54.125714H637.805714c-130.194286 0-236.982857 106.788571-238.445714 236.982857v39.497143z" fill="#ffffff" p-id="1527"></path><path d="M375.954286 485.668571c45.348571 23.405714 64.365714 106.788571 42.422857 191.634286-24.868571 92.16-90.697143 157.988571-143.36 144.822857-32.182857-8.777143-46.811429-42.422857-54.125714-62.902857-11.702857-38.034286-11.702857-86.308571 0-134.582857 17.554286-65.828571 55.588571-117.028571 95.085714-137.508571 8.777143-4.388571 14.628571-13.165714 14.628571-23.405715v-7.314285c0-19.017143-19.017143-32.182857-36.571428-24.868572-57.051429 26.331429-106.788571 90.697143-130.194286 177.005714-16.091429 58.514286-16.091429 117.028571 0 166.765715 17.554286 54.125714 51.2 89.234286 95.085714 100.937143 10.24 2.925714 20.48 4.388571 29.257143 4.388571 77.531429 0 155.062857-77.531429 185.782857-190.171429 32.182857-122.88-5.851429-236.982857-87.771428-266.24 0 14.628571-10.24 61.44-10.24 61.44zM678.765714 380.342857h-26.331428c-16.091429 0-29.257143-13.165714-29.257143-29.257143 0-105.325714 84.845714-190.171429 190.171428-190.171428h29.257143v54.125714h-29.257143c-76.068571 0-136.045714 61.44-136.045714 136.045714v29.257143z" fill="#ffffff" p-id="1528"></path><path d="M849.92 520.777143c-11.702857-58.514286-39.497143-112.64-74.605714-149.211429-29.257143-30.72-62.902857-48.274286-98.011429-49.737143-5.851429 14.628571-8.777143 29.257143-8.777143 46.811429v11.702857c27.794286 0 51.2 20.48 64.365715 32.182857 27.794286 29.257143 49.737143 71.68 59.977142 119.954286 10.24 48.274286 7.314286 96.548571-5.851428 134.582857-7.314286 19.017143-24.868571 52.662857-57.051429 59.977143-54.125714 11.702857-115.565714-58.514286-136.045714-152.137143-10.24-48.274286-8.777143-95.085714 5.851429-133.12 2.925714-5.851429 5.851429-13.165714 10.24-21.942857 2.925714-5.851429 4.388571-11.702857 4.388571-17.554286v-1.462857c0-29.257143-36.571429-40.96-52.662857-16.091428-7.314286 10.24-13.165714 21.942857-17.554286 35.108571-17.554286 48.274286-21.942857 106.788571-8.777143 166.765714 24.868571 117.028571 100.937143 198.948571 181.394286 198.948572 7.314286 0 16.091429-1.462857 23.405714-2.925715 43.885714-8.777143 80.457143-43.885714 99.474286-96.548571 19.017143-46.811429 21.942857-105.325714 10.24-165.302857z" fill="#ffffff" p-id="1529"></path><path d="M355.474286 342.308571c-29.257143 0-57.051429-8.777143-81.92-24.868571L131.657143 225.28l14.628571-23.405714c45.348571-68.754286 137.508571-89.234286 207.725715-43.885715l141.897142 92.16-14.628571 23.405715c-21.942857 33.645714-55.588571 57.051429-95.085714 64.365714-10.24 2.925714-20.48 4.388571-30.72 4.388571z m-144.822857-131.657142l93.622857 61.44c21.942857 13.165714 46.811429 19.017143 71.68 13.165714 16.091429-2.925714 30.72-10.24 42.422857-20.48l-93.622857-61.44c-36.571429-23.405714-83.382857-19.017143-114.102857 7.314286z" fill="#ffffff" p-id="1530"></path><path d="M735.817143 735.817143c23.405714-4.388571 38.034286-24.868571 35.108571-43.885714-4.388571-19.017143-26.331429-30.72-48.274285-26.331429-23.405714 4.388571-38.034286 24.868571-35.108572 43.885714 4.388571 19.017143 26.331429 30.72 48.274286 26.331429zM310.125714 763.611429c-23.405714-5.851429-45.348571 4.388571-49.737143 23.405714-4.388571 19.017143 8.777143 39.497143 32.182858 45.348571 23.405714 5.851429 45.348571-4.388571 49.737142-23.405714 4.388571-19.017143-10.24-39.497143-32.182857-45.348571z" fill="#ffffff" opacity=".2" p-id="1531"></path><path d="M827.977143 190.171429H650.971429c-68.754286 0-131.657143 23.405714-181.394286 64.365714l-102.4-67.291429c-68.754286-45.348571-162.377143-24.868571-207.725714 43.885715l-14.628572 23.405714 141.897143 92.16c24.868571 16.091429 52.662857 24.868571 81.92 24.868571h13.165714c-10.24 24.868571-17.554286 51.2-20.48 77.531429 0 4.388571-1.462857 13.165714-1.462857 23.405714 0 20.48 11.702857 38.034286 30.72 43.885714 45.348571 23.405714 64.365714 106.788571 42.422857 191.634286-24.868571 92.16-90.697143 157.988571-143.36 144.822857-32.182857-8.777143-46.811429-42.422857-54.125714-62.902857-11.702857-38.034286-11.702857-86.308571 0-134.582857 17.554286-65.828571 55.588571-117.028571 95.085714-137.508571 8.777143-4.388571 14.628571-13.165714 14.628572-23.405715v-7.314285c0-19.017143-19.017143-32.182857-36.571429-24.868572-57.051429 26.331429-106.788571 90.697143-130.194286 177.005714-16.091429 58.514286-16.091429 117.028571 0 166.765715 17.554286 54.125714 51.2 89.234286 95.085715 100.937143 10.24 2.925714 20.48 4.388571 29.257143 4.388571 77.531429 0 155.062857-77.531429 185.782857-190.171429 30.72-117.028571-1.462857-225.28-74.605715-260.388571 4.388571-46.811429 21.942857-90.697143 49.737143-125.805714 10.24-8.777143 19.017143-17.554286 26.331429-29.257143 42.422857-39.497143 98.011429-62.902857 160.914286-62.902857h43.885714c-35.108571 35.108571-57.051429 83.382857-57.051429 136.045714 0 16.091429 13.165714 29.257143 29.257143 29.257143H687.542857c24.868571 2.925714 46.811429 20.48 58.514286 32.182857 27.794286 29.257143 49.737143 71.68 59.977143 119.954286 10.24 48.274286 7.314286 96.548571-5.851429 134.582857-7.314286 19.017143-24.868571 52.662857-57.051428 59.977143-54.125714 11.702857-115.565714-58.514286-136.045715-152.137143-10.24-48.274286-7.314286-96.548571 5.851429-134.582857 2.925714-5.851429 5.851429-13.165714 10.24-21.942857 2.925714-5.851429 4.388571-11.702857 4.388571-17.554286v-1.462857c0-29.257143-36.571429-40.96-52.662857-16.091429-7.314286 10.24-13.165714 21.942857-17.554286 35.108572-17.554286 48.274286-21.942857 106.788571-8.777142 166.765714 24.868571 117.028571 100.937143 198.948571 181.394285 198.948571 7.314286 0 16.091429-1.462857 23.405715-2.925714 43.885714-8.777143 80.457143-43.885714 99.474285-96.548571 17.554286-48.274286 21.942857-106.788571 8.777143-166.765715-11.702857-58.514286-39.497143-112.64-74.605714-149.211428-29.257143-29.257143-61.44-46.811429-93.622857-49.737143 13.165714-61.44 67.291429-106.788571 133.12-106.788572H892.342857V190.171429h-64.365714z m-440.32 124.342857c-24.868571 5.851429-49.737143 0-71.68-13.165715l-93.622857-61.44c30.72-26.331429 77.531429-30.72 114.102857-7.314285l92.16 59.977143-4.388572 4.388571c-10.24 8.777143-21.942857 14.628571-36.571428 17.554286z" fill="#ffffff" opacity=".2" p-id="1532"></path></svg>